<svg xmlns="http://www.w3.org/2000/svg" viewBox="0 0 97.82 73.89"><defs><style>.cls-1{fill:none;stroke:#0d3fb8;stroke-linecap:round;stroke-miterlimit:10;stroke-width:2px;}</style></defs><title>Asset 20</title><g id="Layer_2" data-name="Layer 2"><g id="Categories"><line class="cls-1" x1="51.72" y1="28.7" x2="42.52" y2="27.37"/><line class="cls-1" x1="35.01" y1="8.95" x2="39.91" y2="1"/><line class="cls-1" x1="40.58" y1="16.76" x2="52.64" y2="12.47"/><rect class="cls-1" x="66.25" y="17.81" width="17.52" height="17.52" rx="8.33" ry="8.33"/><line class="cls-1" x1="70.54" y1="61.57" x2="70.54" y2="72.52"/><line class="cls-1" x1="85.14" y1="61.57" x2="85.14" y2="72.52"/><path class="cls-1" d="M96.82,72.89V50.59a19,19,0,0,0-15-18.54,8.73,8.73,0,0,1-12.18,1.46,19,19,0,0,0-10.8,17.08v22.3"/><rect class="cls-1" x="15.75" y="13.61" width="17.52" height="17.52" rx="8.33" ry="8.33"/><path class="cls-1" d="M1,72.89V50.59a19,19,0,0,1,19-19h0a19,19,0,0,1,19,19v22.3"/><line class="cls-1" x1="12.68" y1="61.57" x2="12.68" y2="72.52"/><line class="cls-1" x1="27.28" y1="61.57" x2="27.28" y2="72.52"/></g></g></svg>