<svg width="96" height="96" viewBox="0 0 96 96" fill="none" xmlns="http://www.w3.org/2000/svg">
<path fill-rule="evenodd" clip-rule="evenodd" d="M16.867 25.0899L37.7726 4.01862C39.2102 2.5696 41.5411 2.5696 42.9787 4.01862C44.4163 5.46763 44.4163 7.81695 42.9787 9.26597L22.0731 30.3372C20.6355 31.7862 18.3046 31.7862 16.867 30.3372C15.4294 28.8882 15.4294 26.5389 16.867 25.0899ZM15.5117 31.7033C13.3256 29.4998 13.3256 25.9273 15.5117 23.7239L36.4173 2.65259C38.6034 0.449137 42.1479 0.449137 44.334 2.65259C46.5201 4.85604 46.5201 8.42854 44.334 10.632L43.0843 11.8916L43.4543 12.2646L50.6709 19.5384L52.0262 20.9044L52.2325 20.6964C54.2318 18.6814 57.4732 18.6814 59.4724 20.6964C61.4716 22.7115 61.4716 25.9786 59.4724 27.9937L59.2661 28.2017L60.6214 29.5677L67.7501 36.7529L68.1306 37.1364L69.3028 35.9549C71.489 33.7514 75.0334 33.7514 77.2195 35.9549C79.4056 38.1583 79.4056 41.7308 77.2195 43.9343L56.3139 65.0055C54.1278 67.209 50.5834 67.209 48.3972 65.0055C46.2111 62.8021 46.2111 59.2296 48.3972 57.0261L49.3021 56.1141L48.9216 55.7306L41.7929 48.5453L40.4376 47.1793L39.0823 48.5453L10.7393 77.113C10.4894 77.3648 10.2201 77.5852 9.9362 77.7741C7.94912 79.0965 5.24875 78.8761 3.49942 77.113C1.50019 75.0979 1.50019 71.8308 3.49942 69.8157L31.8424 41.2481L33.1977 39.8821L31.8424 38.5161L24.6259 31.2423L24.2558 30.8693L23.4284 31.7033C21.2422 33.9067 17.6978 33.9067 15.5117 31.7033ZM49.7525 58.3921L70.6581 37.3209C72.0957 35.8719 74.4266 35.8719 75.8642 37.3209C77.3018 38.7699 77.3018 41.1192 75.8642 42.5682L54.9586 63.6395C53.521 65.0885 51.1901 65.0885 49.7525 63.6395C48.3149 62.1905 48.3149 59.8412 49.7525 58.3921ZM66.3948 38.1189L57.9108 29.5677L56.5555 28.2017L52.0262 23.6365L50.6709 22.2704L42.099 13.6307L25.9812 29.8763L34.553 38.5161L35.9083 39.8821L40.4376 44.4473L41.7929 45.8133L50.2769 54.3646L66.3948 38.1189ZM33.1977 42.6141L4.85471 71.1818C3.60399 72.4424 3.60398 74.4863 4.85471 75.7469C5.01105 75.9045 5.17954 76.0424 5.35713 76.1606C6.60026 76.9879 8.28961 76.85 9.384 75.7469L37.727 47.1793L39.0823 45.8133L37.727 44.4473L35.9083 42.6141L34.553 41.2481L33.1977 42.6141ZM57.9108 26.8356L58.1171 26.6276L58.1193 26.6254C58.5375 26.2032 58.8155 25.6933 58.9534 25.1544C59.2272 24.0844 58.9485 22.9004 58.1171 22.0625C57.2858 21.2245 56.1111 20.9436 55.0495 21.2196C54.5139 21.3588 54.0072 21.6398 53.5878 22.0625L53.3815 22.2705L54.7368 23.6365L56.5555 25.4696L57.9108 26.8356ZM76.5761 74.8699H28.2476C26.1305 74.8699 24.4143 76.5998 24.4143 78.7336V80.5664H80.4095V78.7336C80.4095 76.5998 78.6932 74.8699 76.5761 74.8699ZM28.2476 72.9381C25.072 72.9381 22.4976 75.5328 22.4976 78.7336V80.5664V81.0274H19.6775C14.3847 81.0274 10.0941 85.3521 10.0941 90.6867V93.0681V95H12.0108H92.0833H94V93.0681V90.6867C94 85.3521 89.7094 81.0274 84.4167 81.0274H82.3261V80.5664V78.7336C82.3261 75.5328 79.7518 72.9381 76.5761 72.9381H28.2476ZM84.4167 82.9593H19.6775C15.4433 82.9593 12.0108 86.419 12.0108 90.6867V93.0681H92.0833V90.6867C92.0833 86.419 88.6508 82.9593 84.4167 82.9593Z" fill="#0D3FB8"/>
</svg>
