<svg width="96" height="96" viewBox="0 0 96 96" fill="none" xmlns="http://www.w3.org/2000/svg">
<path fill-rule="evenodd" clip-rule="evenodd" d="M45.2941 15.2353C45.2941 14.0008 44.2933 13 43.0588 13C41.8243 13 40.8235 14.0008 40.8235 15.2353V29.3529C40.8235 30.5875 41.8243 31.5882 43.0588 31.5882C44.2933 31.5882 45.2941 30.5875 45.2941 29.3529V15.2353ZM43.0588 11C40.7197 11 38.8235 12.8962 38.8235 15.2353V17.6963C38.8184 15.5566 37.0822 13.8235 34.9412 13.8235C32.797 13.8235 31.0588 15.5617 31.0588 17.7059V22.5H14.3248L12.1671 20.3424C11.6931 19.8684 10.9427 19.815 10.4064 20.2172C9.7277 20.7263 9.68292 21.7285 10.3135 22.296L13.2199 24.9118H31.0588V27.5882C31.0588 28.2416 31.2202 28.8572 31.5053 29.3975L31.5031 29.421L31.5017 29.442L31.5013 29.4488L31.5002 29.4686L31.4961 29.5438C31.4926 29.6094 31.4876 29.7052 31.4818 29.8282C31.4702 30.0742 31.4549 30.4288 31.4404 30.8664C31.4113 31.7411 31.385 32.9501 31.3959 34.2871C31.4176 36.9203 31.5831 40.1904 32.2173 42.3416C32.7528 44.1585 33.7176 45.5807 34.541 46.7945C34.6575 46.9663 34.7712 47.1338 34.8804 47.2977C35.788 48.6598 36.4118 49.7909 36.4118 51.2353V84.4114C36.4118 84.9637 36.8595 85.4118 37.4118 85.4118C37.964 85.4118 38.4118 84.9637 38.4118 84.4114V51.2353C38.4118 49.1503 37.4759 47.5861 36.5448 46.1887C36.4252 46.0093 36.3058 45.8326 36.1874 45.6573L36.1867 45.6563C35.3573 44.4285 34.5772 43.2738 34.1357 41.7761C33.5903 39.9259 33.4176 36.9166 33.3959 34.2707C33.3861 33.083 33.4066 31.9967 33.4319 31.1663C33.8958 31.3622 34.4059 31.4706 34.9412 31.4706C37.0822 31.4706 38.8184 29.7375 38.8235 27.5977V29.3529C38.8235 31.692 40.7197 33.5882 43.0588 33.5882C44.5936 33.5882 45.9377 32.7719 46.6806 31.5497C46.7078 32.2519 46.8147 32.9831 47.0753 33.6161C47.4794 34.5974 47.835 35.3105 48.7572 36.1089C48.9909 36.3113 49.2648 36.4248 49.482 36.4943C49.7121 36.5679 49.9612 36.6177 50.2051 36.6531C50.6928 36.7238 51.2525 36.7498 51.7855 36.7563C52.3239 36.7629 52.8646 36.7497 53.3205 36.7354L53.4702 36.7305L53.6938 36.7231C53.9811 36.7134 54.2025 36.7059 54.3529 36.7059H57.5294C58.0817 36.7059 58.5294 36.2582 58.5294 35.7059C58.5294 35.1536 58.0813 34.7059 57.529 34.7059H54.3529C54.1664 34.7059 53.8919 34.7152 53.5873 34.7255L53.5868 34.7255L53.586 34.7255L53.5859 34.7255L53.5858 34.7255L53.5852 34.7255L53.3835 34.7323L53.2577 34.7363C52.8097 34.7504 52.3039 34.7625 51.8099 34.7565C51.3107 34.7504 50.8521 34.726 50.4922 34.6738C50.3123 34.6477 50.1804 34.6179 50.0917 34.5895L50.0712 34.5827L50.0547 34.5768C50.0461 34.5736 50.0392 34.5709 50.0339 34.5686C49.4778 34.0796 49.2708 33.6952 48.9247 32.8546C48.6561 32.2023 48.6304 31.1779 48.7204 30.186C48.7503 29.8566 48.7907 29.5516 48.8307 29.2941H60.2515C60.29 29.3024 60.3404 29.3138 60.4003 29.3282C60.5542 29.3651 60.7657 29.4212 60.9956 29.4968C61.5007 29.663 61.924 29.87 62.1208 30.0644C62.2956 30.2371 62.4983 30.6024 62.6734 31.0325C62.7533 31.2287 62.8158 31.4086 62.8581 31.5393L62.8706 31.5784L62.8823 31.6157V38.4257C62.8696 38.4853 62.851 38.5709 62.827 38.677C62.7771 38.8976 62.7045 39.2051 62.6137 39.5513C62.4277 40.2603 62.1812 41.0699 61.9172 41.6363C61.7985 41.891 61.496 42.3268 61.0342 42.8923C60.5906 43.4356 60.0557 44.0322 59.5337 44.5913C59.0132 45.1489 58.5133 45.6611 58.143 46.0344C57.958 46.2208 57.806 46.3721 57.7004 46.4764C57.6477 46.5286 57.6066 46.569 57.5789 46.5962L57.5476 46.6268L57.5377 46.6365C57.508 46.6653 57.4802 46.696 57.4544 46.7283L58.2353 47.353C57.4544 46.7283 57.4538 46.729 57.4536 46.7292L57.4527 46.7304L57.4505 46.7332L57.4446 46.7407L57.4268 46.7636C57.4124 46.7822 57.3931 46.8077 57.3696 46.8397C57.3225 46.9036 57.2583 46.9937 57.1826 47.1071C57.0319 47.3332 56.8333 47.6561 56.635 48.0528C56.2439 48.835 55.8235 49.9639 55.8235 51.2353V84.4114C55.8235 84.9637 56.2712 85.4118 56.8235 85.4118C57.3758 85.4118 57.8235 84.9637 57.8235 84.4114V51.2353C57.8235 50.3891 58.109 49.5768 58.4238 48.9472C58.5784 48.6381 58.7328 48.3874 58.8467 48.2165C58.9035 48.1314 58.9495 48.067 58.9797 48.0261L58.9863 48.0172C59.0154 47.9886 59.056 47.9487 59.1065 47.8987C59.2161 47.7904 59.3728 47.6345 59.5629 47.4429C59.9426 47.0602 60.4574 46.5328 60.9957 45.9561C61.5325 45.381 62.1005 44.7486 62.5834 44.1573C63.0481 43.5882 63.4956 42.9838 63.7299 42.4814C64.0738 41.7435 64.3568 40.7885 64.5482 40.0588C64.6461 39.6857 64.7241 39.3554 64.7778 39.118C64.8047 38.9991 64.8255 38.9031 64.8398 38.8361L64.8562 38.758L64.8606 38.7367L64.8619 38.7307L64.8624 38.728C64.8757 38.6626 64.8823 38.5961 64.8823 38.5294V31.4706C64.8823 31.3816 64.8704 31.2926 64.8469 31.2068L64.8466 31.2057L64.8461 31.2037L64.8445 31.1981L64.8397 31.1808C64.8356 31.1666 64.83 31.147 64.8227 31.1226C64.8083 31.0739 64.7876 31.0057 64.7607 30.9229C64.7073 30.758 64.6284 30.5304 64.5258 30.2783C64.3359 29.812 64.0092 29.1185 63.5262 28.6415C63.3196 28.4374 63.076 28.2645 62.8235 28.1186V18.0588C62.8235 15.7197 60.9273 13.8235 58.5882 13.8235C57.1151 13.8235 55.8176 14.5756 55.0588 15.7168V15.2353C55.0588 12.8962 53.1626 11 50.8235 11C49.0873 11 47.595 12.0448 46.9412 13.54C46.2874 12.0448 44.7951 11 43.0588 11ZM63.8823 31.4706C64.847 31.2071 64.847 31.2069 64.8469 31.2068L63.8823 31.4706ZM57.8235 84.4114L56.8235 84.4118C57.8235 84.4118 57.8235 84.4117 57.8235 84.4114ZM56.8235 84.4118L55.8235 84.4114C55.8235 84.4117 55.8235 84.4118 56.8235 84.4118ZM38.4118 84.4114L37.4118 84.4118C38.4118 84.4118 38.4118 84.4117 38.4118 84.4114ZM37.4118 84.4118L36.4118 84.4114C36.4118 84.4117 36.4118 84.4118 37.4118 84.4118ZM31.5017 29.442H31.5026L31.53 29.4435L31.5301 29.4437L31.5017 29.442ZM34.9412 29.4706C35.9808 29.4706 36.8235 28.6278 36.8235 27.5882V17.7059C36.8235 16.6663 35.9808 15.8235 34.9412 15.8235C33.9016 15.8235 33.0588 16.6663 33.0588 17.7059V27.5882C33.0588 28.6278 33.9016 29.4706 34.9412 29.4706ZM50.8235 13C52.0581 13 53.0588 14.0008 53.0588 15.2353V26.6471H48.5882V15.2353C48.5882 14.0008 49.589 13 50.8235 13ZM58.5882 15.8235C57.3537 15.8235 56.353 16.8243 56.353 18.0588V26.647H60.8235V18.0588C60.8235 16.8243 59.8228 15.8235 58.5882 15.8235ZM86.3923 22.296L83.486 24.9118H66.3529C65.687 24.9118 65.1471 24.3719 65.1471 23.7059C65.1471 23.0399 65.687 22.5 66.3529 22.5H82.3811L84.5388 20.3424C85.0128 19.8684 85.7632 19.815 86.2994 20.2172C86.9782 20.7263 87.023 21.7285 86.3923 22.296ZM12.3424 27.6471C12.7489 27.6428 13.1176 27.8851 13.275 28.26L25.275 56.8483C25.4888 57.3575 25.2492 57.9436 24.74 58.1574C24.2307 58.3711 23.6446 58.1316 23.4309 57.6223L12.381 31.2976L1.98887 57.6027C1.78595 58.1164 1.20505 58.3683 0.691395 58.1654C0.177741 57.9624 -0.074154 57.3815 0.128771 56.8679L11.4229 28.2796C11.5723 27.9015 11.9358 27.6514 12.3424 27.6471ZM2 63.8235H24.1176V65.7059C24.1176 71.8135 19.1664 76.7647 13.0588 76.7647C6.9512 76.7647 2 71.8135 2 65.7059V63.8235ZM0 65.7059V61.8235H26.1176V65.7059C26.1176 72.9181 20.271 78.7647 13.0588 78.7647C5.84663 78.7647 0 72.9181 0 65.7059ZM82.5777 27.6471C82.9842 27.6428 83.3529 27.8851 83.5103 28.26L95.5103 56.8483C95.7241 57.3575 95.4845 57.9436 94.9753 58.1574C94.466 58.3711 93.8799 58.1316 93.6662 57.6223L82.6163 31.2976L72.2242 57.6027C72.0212 58.1164 71.4403 58.3683 70.9267 58.1654C70.413 57.9624 70.1611 57.3815 70.3641 56.8679L81.6582 28.2796C81.8076 27.9015 82.1711 27.6514 82.5777 27.6471ZM71.8824 63.8235H94V65.7059C94 71.8135 89.0488 76.7647 82.9412 76.7647C76.8336 76.7647 71.8824 71.8135 71.8824 65.7059V63.8235ZM69.8824 65.7059V61.8235H96V65.7059C96 72.9181 90.1534 78.7647 82.9412 78.7647C75.729 78.7647 69.8824 72.9181 69.8824 65.7059Z" fill="#003BBA"/>
</svg>
