<svg width="96" height="96" viewBox="0 0 96 96" fill="none" xmlns="http://www.w3.org/2000/svg">
<path d="M34.1897 2.159C34.1897 2.159 29.7262 2 27.75 2.159C27.132 2.20873 25.8896 2.84289 24.8879 3.59004C23.6975 4.47802 22.9548 5.08118 22.3836 6.45211C20.5948 10.7452 23.3443 22.2332 17.375 28.9909C15.6695 30.9217 14.9836 31.6886 12.7241 32.9263C11.4044 33.6492 9.90999 33.7114 8.78879 34.715C7.71701 35.6744 7 37.9349 7 37.9349V68.3444M34.1897 2.159C34.1897 2.159 42.8893 6.49225 48.8578 6.45211C54.6922 6.41286 63.1681 2.159 63.1681 2.159M34.1897 2.159C34.1897 2.159 34.2105 9.38396 36.3362 13.2495C38.6732 17.4992 45.6379 21.478 45.6379 21.478V68.3444M63.1681 2.159C63.1681 2.159 66.7457 1.80124 69.25 2.159C70.6122 2.3536 71.7947 3.03862 72.8276 3.9478C73.8169 4.81868 74.2586 6.80987 74.2586 8.2409C74.2586 16.1116 74.381 21.9255 79.9828 28.9909C81.4558 30.8488 82.5965 31.7131 84.6336 32.9263C85.9265 33.6962 86.6843 33.7677 87.8534 34.715C89.0276 35.6665 90 37.9349 90 37.9349V68.3444M63.1681 2.159C63.1681 2.159 63.1669 9.39482 61.0216 13.2495C58.6117 17.5795 51.3621 21.478 51.3621 21.478V68.3444M45.6379 68.3444H7M45.6379 68.3444V80.1504M7 68.3444V80.1504M7 80.1504V88.3788C7 88.3788 7.35776 90.5254 8.78879 91.9564C10.2198 93.3875 12.3664 93.7452 12.3664 93.7452H38.125C38.125 93.7452 40.6293 93.7452 42.7759 91.9564C44.9224 90.1676 45.6379 86.2323 45.6379 86.2323V80.1504M7 80.1504H45.6379M51.3621 80.1504V86.2323C51.3621 86.2323 51.7198 90.5254 54.2241 92.3142C56.7284 94.103 59.9483 93.7452 59.9483 93.7452H85.3491C85.3491 93.7452 86.7802 93.3875 88.2112 91.9564C89.6422 90.5254 90 88.3788 90 88.3788V80.1504M51.3621 80.1504H90M51.3621 80.1504V68.3444M90 80.1504V68.3444M90 68.3444H51.3621" stroke="#003BBA" stroke-width="2" stroke-linecap="round" stroke-linejoin="round"/>
<path d="M66.4438 32.2374V31.2374H65.4438V32.2374H66.4438ZM72.7828 32.2374H73.7828V31.2374H72.7828V32.2374ZM66.4438 40.1612L66.4438 41.1612L67.4438 41.1612V40.1612H66.4438ZM58.5201 40.1612L58.52 39.1612L57.5201 39.1612L57.5201 40.1612L58.5201 40.1612ZM58.5201 46.5002L57.5201 46.5002L57.5201 47.5002H58.5201V46.5002ZM66.4438 46.5002H67.4438V45.5002H66.4438V46.5002ZM66.4438 54.424H65.4438V55.424H66.4438V54.424ZM72.7828 54.424V55.424H73.7828V54.424H72.7828ZM72.7828 46.5002V45.5002H71.7828V46.5002H72.7828ZM80.7066 46.5002V47.5002H81.7066V46.5002H80.7066ZM80.7066 40.1612H81.7066V39.1612L80.7066 39.1612L80.7066 40.1612ZM72.7828 40.1612H71.7828V41.1612L72.7828 41.1612L72.7828 40.1612ZM66.4438 33.2374H72.7828V31.2374H66.4438V33.2374ZM67.4438 40.1612V32.2374H65.4438V40.1612H67.4438ZM58.5201 41.1612L66.4438 41.1612L66.4438 39.1612L58.52 39.1612L58.5201 41.1612ZM59.5201 46.5002L59.5201 40.1612L57.5201 40.1612L57.5201 46.5002L59.5201 46.5002ZM66.4438 45.5002H58.5201V47.5002H66.4438V45.5002ZM67.4438 54.424V46.5002H65.4438V54.424H67.4438ZM72.7828 53.424H66.4438V55.424H72.7828V53.424ZM71.7828 46.5002V54.424H73.7828V46.5002H71.7828ZM80.7066 45.5002H72.7828V47.5002H80.7066V45.5002ZM79.7066 40.1612V46.5002H81.7066V40.1612H79.7066ZM72.7828 41.1612L80.7066 41.1612L80.7066 39.1612L72.7828 39.1612L72.7828 41.1612ZM71.7828 32.2374V40.1612H73.7828V32.2374H71.7828Z" fill="#003BBA"/>
</svg>
