<svg xmlns="http://www.w3.org/2000/svg" viewBox="0 0 98 83.82"><defs><style>.cls-1{fill:none;stroke:#0d3fb8;stroke-linecap:round;stroke-miterlimit:10;stroke-width:2px;}</style></defs><title>Asset 19</title><g id="Layer_2" data-name="Layer 2"><g id="Categories"><path class="cls-1" d="M71.2,22.12A14.05,14.05,0,0,1,83,15.7h0a14.06,14.06,0,0,1,14,14v15.7"/><circle class="cls-1" cx="82.31" cy="7.68" r="6.68"/><path class="cls-1" d="M42.46,40.51A14.23,14.23,0,0,1,56.64,26.32h0a14.09,14.09,0,0,1,7.91,2.43"/><circle class="cls-1" cx="55.97" cy="18.22" r="6.76"/><path class="cls-1" d="M1,81.47V65.6A14.23,14.23,0,0,1,15.18,51.41h0A14.23,14.23,0,0,1,29.36,65.6V81.47"/><line class="cls-1" x1="9.73" y1="73.8" x2="9.73" y2="82.18"/><line class="cls-1" x1="20.64" y1="73.8" x2="20.64" y2="82.18"/><circle class="cls-1" cx="14.51" cy="43.31" r="6.76"/><path class="cls-1" d="M62.09,72.74V56.87A14.22,14.22,0,0,1,76.27,42.69h0A14.23,14.23,0,0,1,90.46,56.87V72.74"/><line class="cls-1" x1="70.82" y1="65.07" x2="70.82" y2="73.45"/><line class="cls-1" x1="81.73" y1="65.07" x2="81.73" y2="73.45"/><circle class="cls-1" cx="75.61" cy="34.58" r="6.76"/><line class="cls-1" x1="19.68" y1="18.45" x2="56.77" y2="82.82"/></g></g></svg>