<svg width="96" height="96" viewBox="0 0 96 96" fill="none" xmlns="http://www.w3.org/2000/svg">
<g clip-path="url(#clip0)">
<path fill-rule="evenodd" clip-rule="evenodd" d="M27.0275 2.15039C27.4102 1.7983 27.9989 1.7983 28.3816 2.15039L55.0862 26.7186C55.4926 27.0925 55.519 27.7251 55.145 28.1316C54.7711 28.538 54.1385 28.5644 53.7321 28.1904L27.7046 4.24514L1.67706 28.1904C1.27062 28.5644 0.638002 28.538 0.264074 28.1316C-0.109854 27.7251 -0.0834946 27.0925 0.322949 26.7186L27.0275 2.15039ZM6.875 27.3447C7.42728 27.3447 7.875 27.7924 7.875 28.3447V50.8447H20.5417V29.2822H35.3125V50.8447H37.2292C37.7815 50.8447 38.2292 51.2924 38.2292 51.8447C38.2292 52.397 37.7815 52.8447 37.2292 52.8447H35.3125V52.8655H20.5417V52.8447H6.875C6.32272 52.8447 5.875 52.397 5.875 51.8447V28.3447C5.875 27.7924 6.32272 27.3447 6.875 27.3447ZM22.5417 50.8447H33.3125V31.2822H22.5417V50.8447ZM49.7121 28.1666C49.7121 27.6143 49.2644 27.1666 48.7121 27.1666C48.1598 27.1666 47.7121 27.6143 47.7121 28.1666V38.8484C47.7121 39.4007 48.1598 39.8484 48.7121 39.8484C49.2644 39.8484 49.7121 39.4007 49.7121 38.8484V28.1666ZM41.0152 60.9242V86.0295L40.1667 87.5143L39.3182 86.0295V60.9242C39.3182 60.4556 39.6981 60.0757 40.1667 60.0757C40.6353 60.0757 41.0152 60.4556 41.0152 60.9242ZM43.0152 60.9242V86.5606L40.1667 91.5455L37.3182 86.5606V63.3485H36.1818V72.6743C36.1818 73.2576 35.9905 73.7695 35.6108 74.1491C35.2552 74.5047 34.8224 74.6561 34.4878 74.723C34.1485 74.7909 33.8306 74.7881 33.6132 74.7736C33.5008 74.7661 33.406 74.7548 33.3366 74.7449C33.3017 74.7399 33.2728 74.7352 33.2507 74.7314L33.2227 74.7264L33.2127 74.7245L33.2087 74.7237L33.207 74.7233C33.2066 74.7233 33.2054 74.723 33.4015 73.7425L33.2054 74.723C32.6639 74.6147 32.3126 74.0879 32.4209 73.5463C32.5288 73.007 33.0518 72.6564 33.591 72.7606L33.5923 72.7608L34.1818 61.3485L34.1784 72.7392L33.5969 72.7616L33.595 72.7613L33.5962 72.7616L33.5969 72.7616L33.6194 72.765C33.6475 72.769 33.6917 72.7744 33.7462 72.778C33.8626 72.7858 33.9898 72.783 34.0956 72.7619C34.1344 72.7541 34.161 72.7458 34.1784 72.7392C34.1803 72.7241 34.1818 72.7029 34.1818 72.6743V62.3495L35.1818 62.3485C34.1818 62.3485 34.1818 62.3494 34.1818 62.3495V61.3485H37.3182V60.9242C37.3182 59.3511 38.5935 58.0757 40.1667 58.0757C41.7399 58.0757 43.0152 59.3511 43.0152 60.9242ZM42.2348 46.6265C42.2348 46.077 42.523 45.4264 43.082 44.8936C43.6326 44.3688 44.3722 44.0322 45.1515 44.0322C45.2737 44.0322 45.3924 44.0356 45.5076 44.0424V44.1212H46.1591C47.6886 44.4103 48.4242 45.357 48.4242 46.267L48.4242 85.8043C48.4242 85.8045 48.4242 85.8046 49.4242 85.8046C48.4242 85.8046 48.4242 85.8056 48.4242 85.8059V85.8073L48.4242 85.8106L48.4243 85.8193L48.4247 85.8445C48.4251 85.8647 48.4258 85.8916 48.4271 85.9246C48.4298 85.9906 48.435 86.0815 48.445 86.192C48.4648 86.4119 48.5041 86.716 48.5829 87.0609C48.736 87.7307 49.0612 88.6563 49.782 89.3839C50.5824 90.1918 51.3869 90.701 52.0002 91.0106C52.3069 91.1654 52.5671 91.2709 52.7569 91.3394C52.852 91.3736 52.9296 91.3987 52.9871 91.4161C53.0061 91.4218 53.0228 91.4267 53.0373 91.4309L53.0578 91.4366L53.0812 91.443L53.0897 91.4452L53.0948 91.4465L53.0962 91.4469C53.1762 91.4671 53.2584 91.4773 53.3409 91.4773H90.5541C90.607 91.4784 90.6512 91.4785 90.6856 91.4782C90.7075 91.478 90.7254 91.4777 90.7392 91.4773L90.7425 91.4772C92.8471 91.4721 94.7098 90.4009 95.4049 89.0106C95.7344 88.3515 95.8699 87.5097 95.933 86.9241C95.9665 86.6138 95.9831 86.3383 95.9915 86.14C95.9956 86.0404 95.9978 85.9594 95.9989 85.9019C95.9994 85.8732 95.9997 85.8503 95.9998 85.8339L96 85.8142L96 85.8081L96 85.8061V85.8046V81.4915C96 80.9392 95.5523 80.4915 95 80.4915H90.7273C90.175 80.4915 89.7273 80.9392 89.7273 81.4915C89.7273 82.0437 90.175 82.4915 90.7273 82.4915H94L94 85.8054L93.9999 85.8159L93.9992 85.8641C93.9984 85.9078 93.9967 85.9734 93.9932 86.056C93.9863 86.222 93.9723 86.4526 93.9446 86.7096C93.8853 87.2586 93.776 87.7962 93.616 88.1162C93.3337 88.6809 92.2661 89.4773 90.7273 89.4773H90.5771L90.5672 89.477C90.4737 89.4743 90.3362 89.4665 90.1726 89.446C89.8362 89.404 89.4349 89.3139 89.0826 89.1378C88.6691 88.931 87.8106 88.2525 87.8106 86.6051V48.0005L87.7935 47.9091C87.7803 47.8387 87.7711 47.7378 87.7597 47.6116L87.7596 47.611C87.6933 46.8788 87.5497 45.2946 86.0935 43.8383C85.3245 43.0694 84.7051 42.6417 84.2313 42.4048C83.9935 42.2859 83.7915 42.2147 83.6261 42.1733C83.5434 42.1526 83.4705 42.1396 83.4074 42.1317C83.3759 42.1278 83.347 42.1251 83.3207 42.1235C83.3076 42.1227 83.2951 42.1221 83.2833 42.1217L83.2661 42.1213L83.2579 42.1212L83.2539 42.1212L83.252 42.1212C83.251 42.1212 83.25 42.1212 83.25 43.1212V42.1212H46.2838C45.9155 42.0622 45.5361 42.0322 45.1515 42.0322C43.7945 42.0322 42.5757 42.6132 41.7021 43.4459C40.8369 44.2706 40.2348 45.4172 40.2348 46.6265V51.6586C40.2348 52.2108 40.6825 52.6585 41.2348 52.6585H45.8636C46.4159 52.6585 46.8636 52.2108 46.8636 51.6585C46.8636 51.1063 46.4159 50.6585 45.8636 50.6585H42.2348L42.2348 46.6265ZM50.4242 46.267C50.4242 45.441 50.1856 44.7214 49.7742 44.1212H83.1668C83.1978 44.1313 83.2544 44.1524 83.3369 44.1936C83.5752 44.3128 84.024 44.5972 84.6793 45.2525C85.5783 46.1516 85.6635 46.9256 85.746 47.6761C85.7646 47.8449 85.7831 48.0126 85.8106 48.1802V86.6051C85.8106 87.8339 86.1428 88.7767 86.5986 89.4773H53.4905C53.4739 89.4716 53.4555 89.4652 53.4353 89.4579C53.3136 89.414 53.1287 89.3398 52.9013 89.2251C52.4464 88.9955 51.8267 88.6061 51.2028 87.9763C50.8554 87.6256 50.6465 87.1135 50.5326 86.6152C50.4779 86.376 50.4505 86.1634 50.4369 86.0126C50.4302 85.9378 50.427 85.8798 50.4255 85.8433C50.4247 85.8251 50.4244 85.8123 50.4243 85.8057L50.4242 85.8041V85.8026V85.8011L50.4242 46.267ZM55.4773 56.5416C54.925 56.5416 54.4773 56.9893 54.4773 57.5416C54.4773 58.0939 54.925 58.5416 55.4773 58.5416H81.1137C81.666 58.5416 82.1137 58.0939 82.1137 57.5416C82.1137 56.9893 81.666 56.5416 81.1137 56.5416H55.4773ZM54.8333 66.7992C54.8333 66.2469 55.2811 65.7992 55.8333 65.7992H81.4697C82.022 65.7992 82.4697 66.2469 82.4697 66.7992C82.4697 67.3515 82.022 67.7992 81.4697 67.7992H55.8333C55.2811 67.7992 54.8333 67.3515 54.8333 66.7992ZM55.8333 75.0568C55.2811 75.0568 54.8333 75.5045 54.8333 76.0568C54.8333 76.6091 55.2811 77.0568 55.8333 77.0568H81.4697C82.022 77.0568 82.4697 76.6091 82.4697 76.0568C82.4697 75.5045 82.022 75.0568 81.4697 75.0568H55.8333Z" fill="#003BBA"/>
</g>
<defs>
<clipPath id="clip0">
<rect width="96" height="96" fill="white"/>
</clipPath>
</defs>
</svg>
