<svg xmlns="http://www.w3.org/2000/svg" viewBox="0 0 98 62.07"><defs><style>.cls-1{fill:none;stroke:#0d3fb8;stroke-linecap:round;stroke-miterlimit:10;stroke-width:2px;}</style></defs><title>Asset 21</title><g id="Layer_2" data-name="Layer 2"><g id="Categories"><path class="cls-1" d="M1,60.24V39.3A18.75,18.75,0,0,1,19.7,20.6h0a18.72,18.72,0,0,1,15.5,8.26"/><line class="cls-1" x1="12.51" y1="50.12" x2="12.51" y2="60.64"/><line class="cls-1" x1="26.9" y1="50.12" x2="26.9" y2="60.64"/><circle class="cls-1" cx="18.82" cy="9.91" r="8.91"/><path class="cls-1" d="M62.6,29.16A18.74,18.74,0,0,1,78.3,20.6h0A18.75,18.75,0,0,1,97,39.3V60.24"/><line class="cls-1" x1="71.1" y1="50.12" x2="71.1" y2="60.64"/><line class="cls-1" x1="85.49" y1="50.12" x2="85.49" y2="60.64"/><circle class="cls-1" cx="77.42" cy="9.91" r="8.91"/><path class="cls-1" d="M35.4,60.39V45.17A13.64,13.64,0,0,1,49,31.57h0a13.64,13.64,0,0,1,13.6,13.6V60.39"/><line class="cls-1" x1="43.77" y1="53.04" x2="43.77" y2="61.07"/><line class="cls-1" x1="54.23" y1="53.04" x2="54.23" y2="61.07"/><circle class="cls-1" cx="48.36" cy="23.79" r="6.48"/></g></g></svg>