<svg xmlns="http://www.w3.org/2000/svg" viewBox="0 0 91.03 77.57"><defs><style>.cls-1{fill:none;stroke:#0d3fb8;stroke-linecap:round;stroke-miterlimit:10;stroke-width:2px;}</style></defs><title>Asset 30</title><g id="Layer_2" data-name="Layer 2"><g id="Categories"><path class="cls-1" d="M81.27,76.57H29.49c-2.39,0-5.43-1.86-5.58-4.24L14.13,5.8C14,3.2,7.5,1,10.1,1H61.88a4.51,4.51,0,0,1,4.51,4.24l9.78,66.54C76.33,74.38,83.87,76.57,81.27,76.57Z"/><path class="cls-1" d="M10.63,1C0,1,1,12.74,1,12.74h9.19"/><path class="cls-1" d="M80.39,76.57C91.07,76.57,90,64.83,90,64.83H79.8"/><line class="cls-1" x1="25.58" y1="18.08" x2="57.59" y2="18.08"/><line class="cls-1" x1="27.64" y1="31.95" x2="59.66" y2="31.95"/><line class="cls-1" x1="30.71" y1="44.76" x2="62.73" y2="44.76"/><line class="cls-1" x1="31.78" y1="58.63" x2="63.79" y2="58.63"/></g></g></svg>