<svg width="96" height="96" viewBox="0 0 96 96" fill="none" xmlns="http://www.w3.org/2000/svg">
<g clip-path="url(#clip0)">
<path fill-rule="evenodd" clip-rule="evenodd" d="M13.8049 12.1161C17.4171 10.3467 19.807 9.88198 23.8418 10.0306C28.0679 10.1864 30.4592 11.1138 34.2765 13.1897C36.0216 14.1388 38.0317 15.8001 39.6412 17.269C40.4373 17.9956 41.12 18.6607 41.6032 19.1438C41.8447 19.3853 42.0359 19.5808 42.1662 19.7153C42.2313 19.7826 42.2812 19.8345 42.3144 19.8693L42.3516 19.9084L42.3605 19.9178L42.3625 19.9199L43.0878 20.6894L43.8115 19.9191L43.8138 19.9166L43.8227 19.9072L43.8598 19.8681C43.893 19.8332 43.9428 19.7812 44.0078 19.7138C44.1379 19.5791 44.3289 19.3832 44.5701 19.1415C45.0528 18.6576 45.7348 17.9917 46.5304 17.2646C48.139 15.7945 50.148 14.1343 51.8942 13.1911C56.0564 10.9428 58.7472 10.0203 63.3798 10.0313C67.1522 10.0403 69.3335 10.518 72.7448 12.1229C76.197 13.747 78.0448 15.0595 80.3556 18.0269C81.8734 19.9761 82.8214 21.694 83.4336 23.518C84.0489 25.3509 84.3417 27.339 84.4945 29.8579C84.6554 32.5111 83.8059 35.9069 82.8626 38.7264C82.3971 40.1178 82.1273 40.213 81.7671 41.0824C81.7146 41.2007 82.3235 39.7954 81.7671 41.0824C81.7671 41.0824 81.5242 42.2135 82.2656 42.5862C83.0071 42.9589 83.7614 42.0849 83.7614 42.0849C84.1349 41.1835 84.269 40.8118 84.7529 39.3656C85.7084 36.5098 86.671 32.8007 86.4851 29.7358C86.3273 27.1339 86.0185 24.9479 85.3233 22.8769C84.6251 20.797 83.5538 18.8813 81.926 16.7909C79.3853 13.5283 77.2662 12.0364 73.5902 10.3069C69.9103 8.57568 67.4414 8.03602 63.3845 8.02633C58.3347 8.01427 55.3173 9.06592 50.9503 11.4249C48.977 12.4908 46.8182 14.292 45.1889 15.7809C44.3655 16.5334 43.661 17.2214 43.1619 17.7216L43.0855 17.7983L43.0095 17.7222C42.5102 17.2229 41.8052 16.536 40.9817 15.7844C39.3518 14.2969 37.194 12.4968 35.2254 11.4262C31.2445 9.26132 28.5487 8.19774 23.9148 8.027C19.5724 7.86699 16.8549 8.39173 12.9313 10.3137C9.35438 12.0659 7.43117 13.6542 4.97408 16.7884C3.33647 18.8772 2.19232 20.7715 1.41428 22.8361C0.636954 24.8986 0.243789 27.0816 0.0512676 29.7236C-0.389282 35.7694 2.07392 40.7763 4.96222 44.6117C5.70764 45.6015 8.44572 48.5585 12.0523 52.3621C15.687 56.1954 20.2682 60.955 24.7597 65.5961C29.2517 70.2375 33.6556 74.7623 36.9365 78.1266C38.577 79.8087 39.9368 81.2009 40.8864 82.1725C41.3613 82.6583 41.7336 83.039 41.9873 83.2982L42.2767 83.594L42.3508 83.6698L42.3696 83.6889L42.3743 83.6938L42.3755 83.695C42.3755 83.695 42.3759 83.6954 43.0866 82.9921L42.3755 83.695L43.081 84.4155L43.7917 83.701L51.442 75.6686C51.442 75.6686 51.8515 75.1673 51.442 74.4215C51.2079 73.9952 50.3557 74.1648 50.3557 74.1648L43.0924 81.5685L42.309 80.7672C41.3597 79.7961 40.0005 78.4045 38.3606 76.7229C35.0808 73.3597 30.6787 68.8369 26.1892 64.1979C21.6992 59.5584 17.1235 54.8046 13.4958 50.9787C9.84002 47.1231 7.21025 44.2751 6.5523 43.4014C3.82715 39.7827 1.6482 35.2511 2.04031 29.8701C2.22419 27.3466 2.59223 25.3695 3.27928 23.5464C3.9656 21.7253 4.98899 20.0084 6.54043 18.0295C8.81753 15.1249 10.5065 13.7319 13.8049 12.1161ZM64.107 54.9371V52.9321V40.9106V38.9056H66.1013H77.3343H79.3286V40.9106V52.9321V54.9371H81.323H94.0056H96V56.9421V68.2348V70.2398H94.0056H81.323H79.3286V72.2448V84.995V87H77.3343H66.1013H64.107V84.995V72.2448V70.2398H62.1126H50.1548H48.1605V68.2348V56.9421V54.9371H50.1548H62.1126H64.107ZM66.1013 54.9371V40.9106H77.3343V54.9371V56.9421H79.3286H94.0056V68.2348H79.3286H77.3343V70.2398V84.995H66.1013V70.2398V68.2348H64.107H50.1548V56.9421H64.107H66.1013V54.9371Z" fill="#0D3FB8"/>
</g>
<defs>
<clipPath id="clip0">
<rect width="96" height="96" fill="white"/>
</clipPath>
</defs>
</svg>
