<svg xmlns="http://www.w3.org/2000/svg" viewBox="0 0 98 74.17"><defs><style>.cls-1{fill:none;stroke:#0d3fb8;stroke-linecap:round;stroke-miterlimit:10;stroke-width:2px;}</style></defs><title>Asset 25</title><g id="Layer_2" data-name="Layer 2"><g id="Categories"><path class="cls-1" d="M32.68,14.61q.91-1.15,1.92-2.22A36.09,36.09,0,1,1,60.91,73.17,35.8,35.8,0,0,1,46.16,70"/><path class="cls-1" d="M64.59,1.43s6.76,8.74-.37,9.8,5.15,10.17-4.5,18.89-14.26,2.11-17.83,2.63a16.09,16.09,0,0,0-4.13,1.75"/><path class="cls-1" d="M96.8,38.35S96.44,32,85.74,33.56,76.38,39,76.1,42.27c-.34,4-2.51,7.66-13.21,9.25s-9.58,21-9.58,21"/><rect class="cls-1" x="10.72" y="11.77" width="17.94" height="17.94" rx="8.97" ry="8.97"/><path class="cls-1" d="M1,72.47V50.72A19.5,19.5,0,0,1,20.43,31.28h0A19.5,19.5,0,0,1,39.87,50.72V72.47"/><line class="cls-1" x1="12.96" y1="61.96" x2="12.96" y2="73.17"/><line class="cls-1" x1="27.91" y1="61.96" x2="27.91" y2="73.17"/></g></g></svg>