<svg xmlns="http://www.w3.org/2000/svg" viewBox="0 0 96 79"><defs><style>.cls-1{fill:none;stroke:#0d3fb8;stroke-linecap:round;stroke-miterlimit:10;stroke-width:2px;}</style></defs><title>Asset 28</title><g id="Layer_2" data-name="Layer 2"><g id="Categories"><path class="cls-1" d="M95,43a14,14,0,0,1-28,0Z"/><polyline class="cls-1" points="91 39 81 21 71 39"/><polyline class="cls-1" points="46 68 46 18 50 18 50 30.05"/><line class="cls-1" x1="50" y1="41.89" x2="50" y2="68"/><line class="cls-1" x1="50" y1="23" x2="50" y2="48.83"/><polygon class="cls-1" points="29 78 32 71 64 71 67 78 29 78"/><polyline class="cls-1" points="56.75 14.37 81 14 81 21"/><polyline class="cls-1" points="15 22 15 15 39.25 14.63"/><path class="cls-1" d="M29,44A14,14,0,0,1,1,44Z"/><polyline class="cls-1" points="25 40 15 22 5 40"/><circle class="cls-1" cx="47.75" cy="7.5" r="6.5"/></g></g></svg>