<svg xmlns="http://www.w3.org/2000/svg" viewBox="0 0 98 52.42"><defs><style>.cls-1{fill:none;stroke:#0d3fb8;stroke-linecap:round;stroke-miterlimit:10;stroke-width:2px;}</style></defs><title>Asset 24</title><g id="Layer_2" data-name="Layer 2"><g id="Categories"><path class="cls-1" d="M28.87,51.42c0-.08,0-.16,0-.24A9.21,9.21,0,0,0,19.67,42h-.25v9.44Z"/><path class="cls-1" d="M97,42a9.21,9.21,0,0,0-9.44,9.44H97V42Z"/><path class="cls-1" d="M87.56,18.45c0,.09,0,.17,0,.25a9.21,9.21,0,0,0,9.21,9.21H97V18.45Z"/><polyline class="cls-1" points="82.29 18.45 86.01 18.45 97 18.45 97 51.42 19.42 51.42 19.42 37.85"/><path class="cls-1" d="M47.63,37.85a11.14,11.14,0,0,0,21.64,0"/><circle class="cls-1" cx="40.03" cy="17.73" r="11.15"/><path class="cls-1" d="M1,10.45A9.21,9.21,0,0,0,10.45,1H1v9.44Z"/><path class="cls-1" d="M10.44,34c0-.08,0-.16,0-.24a9.21,9.21,0,0,0-9.21-9.21H1V34Z"/><path class="cls-1" d="M78.57,24.52A9.21,9.21,0,0,0,69.12,34h9.46V24.53Z"/><path class="cls-1" d="M69.13,1c0,.08,0,.16,0,.24a9.21,9.21,0,0,0,9.21,9.21h.25V1Z"/><rect class="cls-1" x="1" y="1" width="77.58" height="32.97"/></g></g></svg>