<svg xmlns="http://www.w3.org/2000/svg" viewBox="0 0 82.61 71.29"><defs><style>.cls-1{fill:none;stroke:#0d3fb8;stroke-linecap:round;stroke-linejoin:round;stroke-width:2px;}</style></defs><title>Asset 27</title><g id="Layer_2" data-name="Layer 2"><g id="Categories"><path class="cls-1" d="M33,38.08c3.63-1.94,6.82-4,13.4-4,4.24,0,8.78,2.17,12.77,4.83.66.45,1.31.91,1.94,1.37s1.24.94,1.83,1.41a69,69,0,0,1,7.58,7.07"/><line class="cls-1" x1="46.8" y1="34.05" x2="46.8" y2="15.45"/><path class="cls-1" d="M38.68,3.71C44.47,8,43.32,15.52,43.32,15.52s-6.88,3.36-12.66-.89S24.2,1.48,24.2,1.48,32.9-.54,38.68,3.71Z"/><path class="cls-1" d="M62.48,14.84c-6.08,3.81-12.69,0-12.69,0S49.2,7.17,55.28,3.36,69.89,2.2,69.89,2.2,68.56,11,62.48,14.84Z"/><path class="cls-1" d="M6.16,70.29C13.1,63.35,38.42,72,45.4,69.54c3.14-1.08,13.7-2.42,16.6-4,4.18-2.29,9.63-6.69,13-9.35,2.41-1.9,8.24-5.89,6.18-7.94-3.53-3.53-9.71-.88-13.24,2.65-2.55,2.55-10.34,5.39-10.34,5.39S47,55.67,43.23,54.41C37.94,52.64,35,51.55,35,51.55s8.24,2.86,14.42,2c3.05-.43,7.06-1.18,7.06-5.29,0-3.53-4.55-3.45-7.06-3.53-4-.13-13.35-3.53-17.65-3.53-8.83,0-13.28,0-17.55,1.1C7.93,43.82,1.12,53,1,53.85v7.23"/><path class="cls-1" d="M67.26,45.34c3.59-3.24,9.32-5.45,12.67-2.1.93.93.24,2.26-1,3.61"/><path class="cls-1" d="M63.71,42.28a5.56,5.56,0,0,1,7.11.61"/></g></g></svg>