<svg xmlns="http://www.w3.org/2000/svg" viewBox="0 0 119.37 65.77"><defs><style>.cls-1{fill:none;stroke:#0d3fb8;stroke-linecap:round;stroke-linejoin:round;stroke-width:2px;}</style></defs><title>Asset 22</title><g id="Layer_2" data-name="Layer 2"><g id="Categories"><path class="cls-1" d="M113.21,1C106.27,7.94,81-.66,74,1.75c-3.14,1.08-13.69,2.43-16.6,4-4.17,2.29-9.63,6.69-13,9.35C42,17,36.14,21,38.19,23.06c3.53,3.53,9.71.89,13.24-2.64C54,17.87,61.77,15,61.77,15s10.56.6,14.37,1.87c5.3,1.76,8.25,2.85,8.25,2.85s-8.25-2.85-14.43-2c-3,.43-7.06,1.18-7.06,5.29,0,3.53,4.55,3.45,7.06,3.53,4,.13,13.35,3.53,17.65,3.53,8.83,0,13.28-.05,17.55-1.1,6.28-1.54,13.1-10.74,13.21-11.58V11"/><path class="cls-1" d="M63.71,20.27s-8.48,2.59-11,5.14c-3.53,3.53-9.71,6.18-13.24,2.65-.93-.94-.24-2.27,1-3.62"/><path class="cls-1" d="M62.46,25.26c-.87.53-3.21.72-3.74,1.25-3.41,3.41-6.59,4.89-10.17,1.89"/><path class="cls-1" d="M70,26.64c-3.32,2.63-8,4.25-11.1,2.05"/><path class="cls-1" d="M6.16,64.77C13.1,57.83,38.42,66.42,45.4,64c3.14-1.08,13.7-2.42,16.6-4,4.18-2.29,9.63-6.7,13-9.35,2.41-1.9,8.24-5.89,6.18-7.95-3.53-3.53-9.71-.88-13.24,2.65C65.39,47.9,57.6,50.74,57.6,50.74S47,50.15,43.23,48.88C37.94,47.12,35,46,35,46s8.24,2.85,14.42,2c3.05-.44,7.06-1.18,7.06-5.3,0-3.53-4.55-3.44-7.06-3.53-4-.13-13.35-3.53-17.65-3.53-8.83,0-13.28.06-17.55,1.11C7.93,38.29,1.12,47.48,1,48.33V55"/><path class="cls-1" d="M55.66,45.5s8.48-2.59,11-5.14c3.53-3.53,9.71-6.18,13.24-2.65.93.93.24,2.26-1,3.62"/><path class="cls-1" d="M56.91,40.5c.87-.53,3.21-.71,3.74-1.24,3.41-3.41,6.59-4.89,10.17-1.9"/><path class="cls-1" d="M49.36,39.13c3.31-2.63,8-4.26,11.09-2.06"/></g></g></svg>