<?xml version="1.0" encoding="utf-8"?>
<!-- Generator: Adobe Illustrator 22.1.0, SVG Export Plug-In . SVG Version: 6.00 Build 0)  -->
<svg version="1.1" id="Layer_1" xmlns="http://www.w3.org/2000/svg" xmlns:xlink="http://www.w3.org/1999/xlink" x="0px" y="0px"
	 viewBox="0 0 98 72.3" style="enable-background:new 0 0 98 72.3;" xml:space="preserve">
<style type="text/css">
	.st0{fill:none;stroke:#0D3FBB;stroke-width:2;stroke-miterlimit:10;}
	.st1{fill:#FFFFFF;stroke:#0D3FBB;stroke-width:2;stroke-linecap:round;stroke-miterlimit:10;}
	.st2{fill:#FFFFFF;stroke:#0D3FBB;stroke-width:2;stroke-miterlimit:10;}
	.st3{fill:none;stroke:#0D3FBB;stroke-width:2;stroke-linecap:round;stroke-miterlimit:10;}
</style>
<g id="Layer_1_1_">
	<title>Asset 33</title>
	<path class="st0" d="M1,65.7c0-18.7-0.1-37-0.1-55.2c11.3-3.3,27.9-6.8,48-6.8c20.4,0,37.1,3.7,48.6,6.9c0,18.4,0,36.7,0,55.2
		c-16.4,1.7-32.7,3.3-49.1,5C32.8,69.1,16.9,67.4,1,65.7z"/>
	<g>
		<g id="Layer_2_1_">
			<g id="Categories">
				<g>
					<path class="st1" d="M81,25.1"/>
					<path class="st2" d="M92.1,10.1L92,62.9c-5-1.2-12.8-2.4-22.4-1c-9.2,1.3-16.9,3.9-21.4,6.3c-4.7-2.8-12.6-6.3-23.9-7.1
						c-7.5-0.6-13.7,0.5-18,1.7c0-18.9,0-37.7,0-56.6c2.7-1.8,9.6-6,19-5.8c12.8,0.1,21.1,8,23.1,10c2.6-2.4,9-7.8,18.7-9.4
						C79.7-0.9,89.4,4.8,92,6.4C92.1,7.6,92.1,8.9,92.1,10.1z"/>
				</g>
			</g>
		</g>
	</g>
	<g>
		<path class="st3" d="M59.1,31.1c1.3-1,4.3-2.4,10.6-2.4c5.6-0.1,9.8,1.5,11.1,2.4"/>
		<path class="st3" d="M59.7,39.9c1.3-1,4.3-2.4,10.6-2.4c5.6-0.1,9.8,1.5,11.1,2.4"/>
		<path class="st3" d="M59.1,21.3c1.3-1,4.3-2.4,10.6-2.4c5.6-0.1,9.8,1.5,11.1,2.4"/>
		<path class="st3" d="M59.7,49.3c1.3-1,4.3-2.4,10.6-2.4c5.6-0.1,9.8,1.5,11.1,2.4"/>
	</g>
	<g>
		<path class="st3" d="M15.9,31.1c1.3-1,4.3-2.4,10.6-2.4c5.6-0.1,9.8,1.5,11.1,2.4"/>
		<path class="st3" d="M16.4,39.9c1.3-1,4.3-2.4,10.6-2.4c5.6-0.1,9.8,1.5,11.1,2.4"/>
		<path class="st3" d="M15.9,21.3c1.3-1,4.3-2.4,10.6-2.4c5.6-0.1,9.8,1.5,11.1,2.4"/>
		<path class="st3" d="M16.4,49.3c1.3-1,4.3-2.4,10.6-2.4c5.6-0.1,9.8,1.5,11.1,2.4"/>
	</g>
	<line class="st0" x1="48.6" y1="10.4" x2="48.3" y2="67.6"/>
</g>
<g id="Layer_2_2_">
</g>
</svg>
