<svg width="96" height="96" viewBox="0 0 96 96" fill="none" xmlns="http://www.w3.org/2000/svg">
<path fill-rule="evenodd" clip-rule="evenodd" d="M8 9H16.1473C19.461 9 22.1473 11.6863 22.1473 15V49.2346C22.1473 52.5483 19.461 55.2346 16.1473 55.2346H8C4.68629 55.2346 2 52.5483 2 49.2346V15C2 11.6863 4.68629 9 8 9ZM0 15C0 10.5817 3.58172 7 8 7H16.1473C20.5656 7 24.1473 10.5817 24.1473 15V49.2346C24.1473 52.8593 21.7367 55.9209 18.4313 56.9039C18.3985 57.2098 18.3428 57.5089 18.2658 57.7993C17.8269 59.4555 16.6974 60.8306 15.2043 61.598V88.093H13.2043V62.213C12.9622 62.2428 12.7157 62.2581 12.4656 62.2581H10.9715C10.8427 62.2581 10.7147 62.254 10.5879 62.246V88.093H8.58791V61.7659C6.9197 61.043 5.64442 59.5844 5.17131 57.7993C5.07289 57.428 5.00919 57.0425 4.98389 56.6466C2.06059 55.4558 0 52.5858 0 49.2346V15ZM7.27924 57.7993H16.1579C15.5544 59.2433 14.1285 60.2581 12.4656 60.2581H10.9715C9.30861 60.2581 7.88272 59.2433 7.27924 57.7993ZM12.0737 21.5057C14.0875 21.5057 15.7554 19.8504 15.7554 17.7646C15.7554 15.6788 14.0875 14.0235 12.0737 14.0235C10.0599 14.0235 8.39194 15.6788 8.39194 17.7646C8.39194 19.8504 10.0599 21.5057 12.0737 21.5057ZM12.0737 23.5057C15.2116 23.5057 17.7554 20.9353 17.7554 17.7646C17.7554 14.5938 15.2116 12.0235 12.0737 12.0235C8.93574 12.0235 6.39194 14.5938 6.39194 17.7646C6.39194 20.9353 8.93574 23.5057 12.0737 23.5057ZM15.7554 32.1173C15.7554 34.2031 14.0875 35.8584 12.0737 35.8584C10.0599 35.8584 8.39194 34.2031 8.39194 32.1173C8.39194 30.0315 10.0599 28.3762 12.0737 28.3762C14.0875 28.3762 15.7554 30.0315 15.7554 32.1173ZM17.7554 32.1173C17.7554 35.288 15.2116 37.8584 12.0737 37.8584C8.93574 37.8584 6.39194 35.288 6.39194 32.1173C6.39194 28.9466 8.93574 26.3762 12.0737 26.3762C15.2116 26.3762 17.7554 28.9466 17.7554 32.1173ZM12.0737 50.2111C14.0875 50.2111 15.7554 48.5558 15.7554 46.47C15.7554 44.3842 14.0875 42.7289 12.0737 42.7289C10.0599 42.7289 8.39194 44.3842 8.39194 46.47C8.39194 48.5558 10.0599 50.2111 12.0737 50.2111ZM12.0737 52.2111C15.2116 52.2111 17.7554 49.6408 17.7554 46.47C17.7554 43.2993 15.2116 40.7289 12.0737 40.7289C8.93574 40.7289 6.39194 43.2993 6.39194 46.47C6.39194 49.6408 8.93574 52.2111 12.0737 52.2111ZM90.7357 71.7637V62.5224C90.7357 61.4733 90.4607 60.4426 89.938 59.533L87.2988 54.9403C86.6103 56.0306 85.4034 56.7993 83.9198 56.7993H39.0527C37.5691 56.7993 36.3621 56.0306 35.6736 54.9403L33.0345 59.533C32.5118 60.4426 32.2367 61.4733 32.2367 62.5224V71.7637C32.2367 75.0774 34.923 77.7637 38.2367 77.7637H84.7357C88.0494 77.7637 90.7357 75.0774 90.7357 71.7637ZM85.9024 52.5101L84.3238 49.763L79.807 42.8567C78.6987 41.1621 76.8104 40.1407 74.7855 40.1407H48.1869C46.162 40.1407 44.2738 41.1621 43.1655 42.8567L38.6487 49.763L37.0701 52.5101C36.9023 53.6519 37.771 54.7993 39.0527 54.7993H64.3701C64.8245 50.6761 68.2852 47.4701 72.487 47.4701C76.6888 47.4701 80.1495 50.6761 80.6039 54.7993H83.9198C85.2015 54.7993 86.0702 53.6519 85.9024 52.5101ZM72.487 49.4701C69.4066 49.4701 66.8274 51.7699 66.3861 54.7993H78.5879C78.1466 51.7699 75.5674 49.4701 72.487 49.4701ZM92.5017 60.6017C92.6565 61.2275 92.7357 61.8723 92.7357 62.5224V71.7637C92.7357 74.4074 91.4534 76.7516 89.4768 78.2081V80V83C89.4768 85.7614 87.2382 88 84.4768 88H81.6112C78.8498 88 76.6112 85.7614 76.6112 83V80V79.7637H46.9215V80V83C46.9215 85.7614 44.6829 88 41.9215 88H39.0559C36.2945 88 34.0559 85.7614 34.0559 83V80V78.5857C31.7648 77.1785 30.2367 74.6496 30.2367 71.7637V62.5224C30.2367 61.9165 30.3056 61.3151 30.4402 60.7295L30.0878 60.3867L30.7482 59.7078C30.0878 60.3867 30.0879 60.3868 30.0878 60.3867L30.0866 60.3855L30.0847 60.3837L30.0786 60.3777L30.0582 60.3576C30.041 60.3405 30.0166 60.3162 29.9861 60.2852C29.9251 60.2234 29.8391 60.1348 29.7351 60.0239C29.5276 59.8027 29.2455 59.4895 28.9463 59.1204C28.3727 58.4129 27.6407 57.386 27.34 56.364C27.0035 55.2203 27.1029 53.7107 27.1932 52.8602C27.3023 51.8339 28.178 51.1347 29.1386 51.1347H35.0463H35.4131C35.4957 50.957 35.5928 50.7816 35.7051 50.6099L36.9433 48.7166L40.714 42.1549C42.1409 39.6717 44.7863 38.1407 47.6503 38.1407H48.1869H74.7855H75.3222C78.1861 38.1407 80.8316 39.6717 82.2585 42.1549L86.0292 48.7166L87.2674 50.6099C87.3797 50.7816 87.4768 50.957 87.5593 51.1347H87.7642H93.6719C94.6326 51.1347 95.5083 51.8339 95.6173 52.8602C95.7077 53.7107 95.8071 55.2203 95.4706 56.364C95.1699 57.386 94.4379 58.4129 93.8643 59.1204C93.565 59.4895 93.2829 59.8027 93.0755 60.0239C92.9715 60.1348 92.8854 60.2234 92.8244 60.2852C92.7939 60.3162 92.7696 60.3405 92.7524 60.3576L92.7319 60.3777L92.7259 60.3837L92.724 60.3855L92.723 60.3865C92.7229 60.3866 92.7228 60.3867 92.3177 59.9703L92.723 60.3865L92.5017 60.6017ZM52.8698 63C52.3175 63 51.8698 63.4477 51.8698 64C51.8698 64.5523 52.3175 65 52.8698 65H68.6837C69.2359 65 69.6837 64.5523 69.6837 64C69.6837 63.4477 69.2359 63 68.6837 63H52.8698ZM34.056 73C34.056 72.4477 34.5037 72 35.056 72H86.4975C87.0498 72 87.4975 72.4477 87.4975 73C87.4975 73.5523 87.0498 74 86.4975 74H35.056C34.5037 74 34.056 73.5523 34.056 73ZM55.8388 67C55.2865 67 54.8388 67.4477 54.8388 68C54.8388 68.5523 55.2865 69 55.8388 69H65.7147C66.267 69 66.7147 68.5523 66.7147 68C66.7147 67.4477 66.267 67 65.7147 67H55.8388ZM44.9215 80H36.0559V83C36.0559 84.6569 37.3991 86 39.0559 86H41.9215C43.5783 86 44.9215 84.6569 44.9215 83V80ZM78.6112 80H87.4768V83C87.4768 84.6569 86.1336 86 84.4768 86H81.6112C79.9544 86 78.6112 84.6569 78.6112 83V80ZM45.1142 64.2581H38.0862C37.2091 64.2581 36.498 64.9691 36.498 65.8462C36.498 66.7234 37.2091 67.4344 38.0862 67.4344H45.1142C45.9913 67.4344 46.7023 66.7234 46.7023 65.8462C46.7023 64.9691 45.9913 64.2581 45.1142 64.2581ZM38.0862 62.2581C36.1045 62.2581 34.498 63.8645 34.498 65.8462C34.498 67.8279 36.1045 69.4344 38.0862 69.4344H45.1142C47.0959 69.4344 48.7023 67.8279 48.7023 65.8462C48.7023 63.8645 47.0959 62.2581 45.1142 62.2581H38.0862ZM77.1481 64.2581H84.176C85.0532 64.2581 85.7642 64.9691 85.7642 65.8462C85.7642 66.7234 85.0532 67.4344 84.176 67.4344H77.1481C76.271 67.4344 75.5599 66.7234 75.5599 65.8462C75.5599 64.9691 76.271 64.2581 77.1481 64.2581ZM73.5599 65.8462C73.5599 63.8645 75.1664 62.2581 77.1481 62.2581H84.176C86.1577 62.2581 87.7642 63.8645 87.7642 65.8462C87.7642 67.8279 86.1577 69.4344 84.176 69.4344H77.1481C75.1664 69.4344 73.5599 67.8279 73.5599 65.8462ZM92.3107 57.8608C92.279 57.8999 92.2476 57.9383 92.2164 57.9759L89.4786 53.1347H93.6351C93.7214 53.9819 93.7596 55.0935 93.5519 55.7995C93.3702 56.4169 92.8594 57.1842 92.3107 57.8608ZM30.5942 57.9759C30.563 57.9383 30.5315 57.8999 30.4998 57.8608C29.9512 57.1842 29.4403 56.4169 29.2586 55.7995C29.0509 55.0935 29.0892 53.9819 29.1755 53.1347H33.332L30.5942 57.9759Z" fill="#003BBA"/>
</svg>
