<svg xmlns="http://www.w3.org/2000/svg" viewBox="0 0 51.42 86.59"><defs><style>.cls-1{fill:none;stroke:#0d3fb8;stroke-linecap:round;stroke-miterlimit:10;stroke-width:2px;}</style></defs><title>Asset 29</title><g id="Layer_2" data-name="Layer 2"><g id="Categories"><circle class="cls-1" cx="25.87" cy="66.58" r="19.01"/><path class="cls-1" d="M24.93,77.79,22.6,70.48a1,1,0,0,0-.63-.64l-7.31-2.33a1,1,0,0,1,0-1.87L22,63.31a1,1,0,0,0,.63-.63l2.33-7.31a1,1,0,0,1,1.88,0l2.33,7.31a1,1,0,0,0,.63.63l7.31,2.33a1,1,0,0,1,0,1.87l-7.31,2.33a1,1,0,0,0-.63.64l-2.33,7.31A1,1,0,0,1,24.93,77.79Z"/><line class="cls-1" x1="25.87" y1="47.57" x2="25.87" y2="41.23"/><polygon class="cls-1" points="29.67 40.4 22.07 40.4 11.93 30.26 38.54 30.26 29.67 40.4"/><polyline class="cls-1" points="13.67 1 13.67 31.53 1 20.12 1 1"/><polyline class="cls-1" points="37.75 1 37.75 31.53 50.42 18.86 50.42 1"/></g></g></svg>