<?xml version="1.0" encoding="utf-8"?>
<!-- Generator: Adobe Illustrator 22.1.0, SVG Export Plug-In . SVG Version: 6.00 Build 0)  -->
<svg version="1.1" id="Layer_1" xmlns="http://www.w3.org/2000/svg" xmlns:xlink="http://www.w3.org/1999/xlink" x="0px" y="0px"
	 viewBox="0 0 22 22" style="enable-background:new 0 0 22 22;" xml:space="preserve">
<style type="text/css">
	.st0{fill:none;stroke:#0D3FB8;stroke-width:2;stroke-linecap:round;stroke-miterlimit:10;}
</style>
<title>Asset 49</title>
<g id="Layer_2_1_">
	<g id="Small_Icons">
		<path id="_Compound_Path_" class="st0" d="M1.8,8.6c1.1,2.6,2.7,5,4.7,7c2,2,4.4,3.6,7,4.7c1.1,0.4,2.2,0.7,3.4,0.8
			c0.6,0,1.2-0.2,1.7-0.6l0,0l2.1-2.5c0.6-0.7,0.6-1.8-0.1-2.4l-0.1-0.1l-3-2.4c-0.7-0.6-1.7-0.6-2.3,0.1c0,0-0.1,0.1-0.1,0.1
			l-0.8,1.2c-0.4-0.1-1.6-0.7-3.8-2.9S7.6,8.2,7.5,7.8L8.7,7l0.1-0.1c0.6-0.7,0.6-1.7,0-2.3l-2.3-3L6.4,1.5C6.1,1.2,5.7,1,5.3,1
			C4.8,1,4.3,1.1,4,1.4L1.6,3.5l0,0C0.4,4.7,1.3,7.5,1.8,8.6z"/>
	</g>
</g>
</svg>
