<?xml version="1.0" encoding="utf-8"?>
<!-- Generator: Adobe Illustrator 22.1.0, SVG Export Plug-In . SVG Version: 6.00 Build 0)  -->
<svg version="1.1" id="Layer_1" xmlns="http://www.w3.org/2000/svg" xmlns:xlink="http://www.w3.org/1999/xlink" x="0px" y="0px"
	 viewBox="0 0 26 26" style="enable-background:new 0 0 26 26;" xml:space="preserve">
<style type="text/css">
	.st0{fill:none;stroke:#0D3FB8;stroke-width:2;stroke-linecap:round;stroke-miterlimit:10;}
	.st1{fill:#0D3FB8;stroke:#0D3FB8;stroke-width:0.7;stroke-linecap:round;stroke-miterlimit:10;}
</style>
<title>Asset 1</title>
<g id="Layer_2_1_">
	<g id="Small_Icons">
		<circle class="st0" cx="13" cy="13" r="12"/>
	</g>
</g>
<circle class="st1" cx="12.8" cy="21.2" r="1.5"/>
<g>
	<path class="st1" d="M12.6,18c-0.6,0-1.1-0.5-1.1-1.1v-1.6c0-1.8,1.3-2.9,2.4-3.8c1.1-0.9,1.8-1.5,1.8-2.5c0-1.5-1.2-2.7-2.7-2.7
		s-2.7,1.2-2.7,2.7c0,0.6-0.5,1.1-1.1,1.1c-0.6,0-1.1-0.5-1.1-1.1c0-2.7,2.2-4.9,4.9-4.9s4.9,2.2,4.9,4.9c0,2.1-1.4,3.3-2.6,4.2
		c-1,0.8-1.6,1.3-1.6,2v1.6C13.7,17.5,13.2,18,12.6,18z"/>
</g>
</svg>
