<?xml version="1.0" encoding="utf-8"?>
<!-- Generator: Adobe Illustrator 22.1.0, SVG Export Plug-In . SVG Version: 6.00 Build 0)  -->
<svg version="1.1" id="Layer_1" xmlns="http://www.w3.org/2000/svg" xmlns:xlink="http://www.w3.org/1999/xlink" x="0px" y="0px"
	 viewBox="0 0 500 512" style="enable-background:new 0 0 500 512;" xml:space="preserve">
<style type="text/css">
	.st0{fill:#0D3FB8;}
</style>
<path class="st0" d="M17.9,114h464.3c6,0,11.9,0,17.9,0c0-2.7,0-5.3,0-8V86c0-2.7,0-5.3,0-8c-6,0-11.9,0-17.9,0H17.9
	c-6,0-11.9,0.1-17.8,0.1C0.1,80.7,0,83.3,0,86v20c0,2.7,0,5.3,0,7.9C6,113.9,11.9,114,17.9,114z M17.9,273.8h464.3c6,0,12,0,18,0
	c0-2.7-0.1-5.3-0.1-8v-20c0-2.7,0-5.3,0-8c-6,0-11.9-0.1-17.9-0.1H17.9c-6,0-11.9,0.1-17.9,0.1c0,2.7,0,5.3,0,8v20c0,2.7,0,5.3,0,8
	C6,273.7,11.9,273.8,17.9,273.8z M17.9,434h464.3c6,0,12,0,18,0c0-2.6-0.1-5.4-0.1-8v-20c0-2.6,0.1-5.3,0.1-8c-6,0-12,0-18,0H17.9
	c-5.9,0-11.8,0-17.7,0c0,2.7-0.1,5.3-0.1,8v20c0,2.6,0.1,5.4,0.1,8C6,434,11.9,434,17.9,434z"/>
<path class="st0" d="M-2.4,227.1"/>
</svg>
