<?xml version="1.0" encoding="utf-8"?>
<!-- Generator: Adobe Illustrator 22.1.0, SVG Export Plug-In . SVG Version: 6.00 Build 0)  -->
<svg version="1.1" id="Layer_1" xmlns="http://www.w3.org/2000/svg" xmlns:xlink="http://www.w3.org/1999/xlink" x="0px" y="0px"
	 viewBox="0 0 26 27" style="enable-background:new 0 0 26 27;" xml:space="preserve">
<style type="text/css">
	.st0{fill:none;stroke:#0D3FB8;stroke-width:2;stroke-linecap:round;stroke-linejoin:round;}
</style>
<title>Asset 58</title>
<g id="Layer_2_1_">
	<g id="Small_Icons">
		<path class="st0" d="M3.6,16c0.4-0.3,0.7-0.8,0.6-1.3c-0.1-0.8-0.1-1.7,0-2.5c0-0.5-0.2-0.9-0.5-1.2L1.1,9.2l2.3-3.9l2.8,1.3
			c0.5,0.2,1,0.1,1.4-0.2c0.7-0.5,1.4-0.9,2.2-1.3c0.5-0.2,0.8-0.6,0.8-1.1l0.3-3h4.5l0.3,3c0,0.5,0.3,0.9,0.8,1.1
			c0.8,0.3,1.6,0.8,2.2,1.3c0.4,0.3,0.9,0.3,1.4,0.1l2.8-1.2L25,9.2l-2.5,1.8c-0.4,0.3-0.6,0.8-0.5,1.3c0.1,0.8,0.1,1.7,0,2.5l0,0
			c-0.1,0.5,0.1,1,0.5,1.3l2.4,1.8l-2.3,3.9l-2.8-1.3c-0.5-0.2-1-0.1-1.4,0.2c-0.7,0.5-1.4,0.9-2.2,1.3c-0.4,0.2-0.8,0.6-0.8,1.1
			l-0.3,3h-4.5l-0.3-3c0-0.5-0.4-0.9-0.8-1.1c-0.8-0.3-1.6-0.8-2.2-1.3C7,20.3,6.4,20.2,6,20.4l-2.8,1.3L1,17.8L3.6,16z"/>
		<circle class="st0" cx="13" cy="13.5" r="4.5"/>
	</g>
</g>
</svg>
