<?xml version="1.0" encoding="utf-8"?>
<!-- Generator: Adobe Illustrator 22.1.0, SVG Export Plug-In . SVG Version: 6.00 Build 0)  -->
<svg version="1.1" id="Layer_1" xmlns="http://www.w3.org/2000/svg" xmlns:xlink="http://www.w3.org/1999/xlink" x="0px" y="0px"
	 viewBox="0 0 26 26" style="enable-background:new 0 0 26 26;" xml:space="preserve">
<style type="text/css">
	.st0{fill:none;stroke:#0D3FB8;stroke-width:2;stroke-linecap:round;stroke-miterlimit:10;}
</style>
<title>Asset 2</title>
<g id="Layer_2_1_">
	<g id="Small_Icons">
		<circle class="st0" cx="13" cy="13" r="12"/>
		<path class="st0" d="M15,2c2,3.3,3,7.1,3,11c0,7.3-3,11-3,11"/>
		<path class="st0" d="M11,2C9,5.3,8,9.1,8,13c0,7.3,3,11,3,11"/>
		<path class="st0" d="M24,15c-3.3,2-7.1,3-11,3c-7.3,0-11-3-11-3"/>
		<path class="st0" d="M24,11c-3.3-2-7.1-3-11-3C5.7,8,2,11,2,11"/>
	</g>
</g>
</svg>
