<svg xmlns="http://www.w3.org/2000/svg" viewBox="0 0 48 88.16"><defs><style>.cls-1{fill:none;stroke-linecap:round;}.cls-1,.cls-2{stroke:#333;stroke-miterlimit:10;stroke-width:2px;}.cls-2{fill:#fff;}</style></defs><title>Asset 31</title><g id="Layer_2" data-name="Layer 2"><g id="Categories"><path class="cls-1" d="M44.28,44.39a20.61,20.61,0,1,0-41.21,0c0,7.6,4,12,7.51,18.18a27.62,27.62,0,0,1,2.79,10.14l.05,2.63H34v-3a28.35,28.35,0,0,1,2.78-9.82C40.3,56.42,44.28,52,44.28,44.39Z"/><line class="cls-2" x1="14.6" y1="81.16" x2="32.81" y2="81.16"/><path class="cls-1" d="M44.28,44.39a20.61,20.61,0,1,0-41.21,0c0,7.6,4,12,7.51,18.18a27.62,27.62,0,0,1,2.79,10.14l.05,2.63H34v-3a28.35,28.35,0,0,1,2.78-9.82C40.3,56.42,44.28,52,44.28,44.39Z"/><line class="cls-1" x1="14.6" y1="81.16" x2="32.81" y2="81.16"/><line class="cls-1" x1="15.6" y1="87.16" x2="31.81" y2="87.16"/><line class="cls-1" x1="9.45" y1="20.78" x2="1" y2="9.64"/><line class="cls-1" x1="24.27" y1="17.12" x2="24.04" y2="1"/><line class="cls-1" x1="38.39" y1="20.1" x2="47" y2="8.94"/><path class="cls-1" d="M25.82,70.61V52.93a6.23,6.23,0,1,0-4.24.2V70.61"/></g></g></svg>