<?xml version="1.0" encoding="utf-8"?>
<!-- Generator: Adobe Illustrator 22.1.0, SVG Export Plug-In . SVG Version: 6.00 Build 0)  -->
<svg version="1.1" id="Layer_1" xmlns="http://www.w3.org/2000/svg" xmlns:xlink="http://www.w3.org/1999/xlink" x="0px" y="0px"
	 viewBox="0 0 1200 200" style="enable-background:new 0 0 1200 200;" xml:space="preserve">
<style type="text/css">
	.st0{fill:#333333;}
	.st1{fill:#0D3FB8;}
</style>
<g>
	<path class="st0" d="M142.6,108.9l-1.9,31.6H50V135c1.6-0.1,3.5-0.4,5.7-0.7c2.2-0.3,3.6-0.6,4.3-0.9c1.7-0.6,2.8-1.5,3.5-2.7
		c0.6-1.2,1-2.6,1-4.4V56.9c0-1.7-0.3-3-0.8-4.1c-0.5-1.1-1.7-2.1-3.7-2.9c-1.4-0.6-3.2-1.2-5.2-1.6c-2-0.4-3.6-0.7-4.8-0.9V42h54
		v5.4c-1.5,0.1-3.2,0.3-5.2,0.6c-2,0.3-3.8,0.6-5.2,1.1c-1.8,0.6-3,1.5-3.6,2.8c-0.6,1.3-0.9,2.7-0.9,4.3V121c0,3.1,0.2,5.5,0.6,7.2
		c0.4,1.8,1.2,3.1,2.4,3.9c1.2,0.9,2.9,1.4,5,1.7c2.1,0.3,5.1,0.4,8.9,0.4c3.7,0,7.3-0.2,10.8-0.7c3.5-0.4,6-1.4,7.5-2.9
		c2.4-2.4,4.8-5.7,7.2-10c2.5-4.3,4.4-8.2,5.9-11.8H142.6z"/>
	<path class="st0" d="M223.4,123.9c-1.6,2.6-3.6,5.1-5.9,7.5c-2.3,2.3-4.9,4.3-7.8,6c-3.1,1.8-6.2,3.1-9.4,4
		c-3.2,0.9-6.8,1.4-10.9,1.4c-6.8,0-12.7-1-17.7-2.9c-5-1.9-9.1-4.6-12.3-7.8c-3.2-3.3-5.7-7.2-7.2-11.6c-1.6-4.5-2.4-9.3-2.4-14.5
		c0-4.7,0.9-9.2,2.6-13.6c1.7-4.3,4.2-8.2,7.4-11.5c3.1-3.3,7.1-5.9,11.9-8c4.8-2,10.1-3.1,16.1-3.1c6.5,0,11.8,0.8,15.9,2.4
		c4.2,1.6,7.6,3.7,10.3,6.5c2.6,2.6,4.6,5.7,5.8,9.3c1.2,3.6,1.8,7.3,1.8,11.3v4.5h-46.9c0,9.5,1.8,16.7,5.5,21.6
		c3.7,4.9,9.5,7.4,17.4,7.4c4.3,0,8.3-1.2,11.7-3.6c3.5-2.4,6.4-5.4,8.9-9L223.4,123.9z M196.9,97.5c0-2.8-0.1-5.6-0.4-8.5
		s-0.8-5.3-1.5-7.1c-0.8-2.2-1.9-3.8-3.2-4.9s-3.1-1.7-5.2-1.7c-3.6,0-6.4,1.8-8.5,5.4s-3.3,9.3-3.5,17.1L196.9,97.5z"/>
	<path class="st0" d="M306.6,79.4h-15.3c1.8,2,3.2,4.2,4.1,6.4s1.4,4.6,1.4,7c0,3.2-0.9,6.2-2.6,9c-1.7,2.8-4,5.1-6.7,6.8
		c-2.8,1.8-6.1,3.2-9.9,4.2c-3.8,1-7.9,1.5-12.3,1.5h-11.3c-0.6,0.4-1.2,1.1-1.8,2c-0.7,0.9-1,1.8-1,2.6c0,2,0.8,3.5,2.4,4.3
		s4.6,1.2,8.8,1.3c4.2,0.1,8.5,0.3,12.8,0.5c4.3,0.3,7.4,0.4,9.2,0.5c2.7,0.1,5.3,0.7,8,1.6c2.6,0.9,4.9,2.2,6.9,3.7
		c2.1,1.6,3.9,3.7,5.3,6.2c1.4,2.5,2.1,5.4,2.1,8.7c0,3.5-0.8,6.8-2.5,9.9c-1.7,3.1-4.3,5.8-7.7,8c-3.7,2.4-8,4.2-13.1,5.5
		c-5.1,1.3-11.4,1.9-19,1.9c-12.2,0-21.4-1.5-27.7-4.4c-6.3-3-9.5-7.4-9.5-13.3c0-3.7,1.7-6.7,5.1-9c3.4-2.4,8.7-3.7,15.9-3.9v-0.8
		c-4.2-1.4-7.6-3.3-9.9-5.7c-2.4-2.4-3.6-5.2-3.6-8.3c0-1.9,0.5-3.6,1.4-4.9c0.9-1.3,2.2-2.5,3.6-3.5c1.3-0.9,2.9-1.6,4.7-2.3
		c1.8-0.6,3.4-1.1,4.6-1.5v-0.8c-6.2-2.3-10.8-5.1-13.8-8.5c-2.9-3.3-4.4-7.4-4.4-12.2c0-6.8,3.1-12.2,9.4-16.3
		c6.3-4.1,14.2-6.1,23.8-6.1c3.1,0,6.2,0.3,9.1,0.8c2.9,0.5,5.2,1,6.7,1.4h26.9V79.4z M285.6,150.9c0-1.6-0.4-3.1-1.3-4.7
		s-2.8-2.8-5.9-3.8c-1.7-0.3-4.4-0.5-8.2-0.6c-3.8-0.1-9-0.1-15.7-0.1c-1.6,1.4-3,3-4,4.9c-1.1,1.9-1.6,4.2-1.6,6.9
		c0,1.2,0.3,2.4,1,3.8s1.7,2.7,3,3.9c1.6,1.3,3.4,2.4,5.4,3.2c2,0.8,5,1.1,9,1.1c6,0,10.5-1.2,13.6-3.5
		C284.1,159.8,285.6,156,285.6,150.9z M274.1,92.6c0-5.4-0.9-9.7-2.6-12.8c-1.7-3.1-4.4-4.7-7.9-4.7c-1.8,0-3.4,0.4-4.7,1.3
		c-1.3,0.9-2.4,2.1-3.3,3.7c-0.8,1.6-1.3,3.4-1.6,5.5c-0.3,2.1-0.4,4.3-0.4,6.5c0,5,0.9,9.2,2.6,12.4c1.8,3.2,4.3,4.9,7.5,4.9
		c3.3,0,5.9-1.5,7.7-4.4C273.2,102,274.1,97.9,274.1,92.6z"/>
	<path class="st0" d="M390.1,139c-2,0.9-4.4,1.7-7.2,2.4c-2.8,0.7-5.7,1.1-8.8,1.1c-5.7,0-9.8-0.8-12.5-2.5
		c-2.7-1.7-4.5-4.1-5.5-7.2h-0.4c-1.6,1.6-3.1,2.9-4.5,4c-1.5,1.1-3,2.1-4.7,2.8c-2.2,1-4.3,1.8-6.3,2.3c-2,0.5-4.8,0.8-8.4,0.8
		c-5.4,0-10-1.6-13.8-4.8c-3.8-3.2-5.7-7.4-5.7-12.6c0-3,0.4-5.6,1.3-7.7c0.8-2.1,2-4,3.5-5.6c1.4-1.5,3-2.7,4.8-3.7
		c1.8-1,3.8-1.9,6-2.7c4.2-1.5,9.2-3.1,15-4.8c5.8-1.6,10.1-3.1,12.8-4.4v-6.7c0-1.2-0.1-2.7-0.3-4.6c-0.2-1.9-0.6-3.5-1.2-4.8
		c-0.6-1.5-1.7-2.7-3.1-3.7c-1.4-1-3.2-1.5-5.5-1.5c-2,0-3.7,0.3-5.1,0.9c-1.4,0.6-2.5,1.2-3.3,1.8c0.1,0.9,0.5,2.3,1.2,4.2
		c0.6,1.9,1,3.7,1,5.5c0,0.8-0.2,1.8-0.6,2.9c-0.4,1.2-1,2.1-1.8,2.8c-1.1,0.9-2.3,1.6-3.6,2.1c-1.3,0.5-3.4,0.8-6.1,0.8
		c-3.9,0-6.8-0.9-8.8-2.8c-2-1.9-3-4.3-3-7.3c0-2.6,1-4.9,3.1-7c2.1-2.1,4.6-3.8,7.5-5.1c2.9-1.4,6.3-2.5,10.1-3.2
		c3.8-0.8,7.3-1.1,10.5-1.1c4.5,0,8.6,0.3,12.3,0.8c3.7,0.5,7.1,1.6,10.1,3.3c2.9,1.6,5.1,4,6.8,7c1.7,3.1,2.5,7.1,2.5,12
		c0,5.2-0.1,11.4-0.3,18.6c-0.2,7.2-0.3,11.9-0.3,14.1c0,2.1,0.3,3.7,0.9,4.9c0.6,1.2,1.6,2.1,2.9,2.7c0.8,0.4,2,0.6,3.7,0.7
		c1.7,0.1,3.2,0.1,4.6,0.1V139z M355.7,102.9c-2.6,0.9-5.2,1.9-7.7,3c-2.6,1.1-4.6,2.3-6.3,3.6c-1.7,1.3-3.1,3-4,5
		c-1,2-1.5,4.4-1.5,7.1c0,3.6,0.8,6.2,2.5,7.9c1.6,1.6,3.7,2.4,6.1,2.4c2.6,0,4.7-0.5,6.3-1.6c1.6-1,3.1-2.3,4.4-3.9L355.7,102.9z"
		/>
	<path class="st0" d="M440,140.4h-43.7v-5.1c1.2-0.1,2.4-0.2,3.5-0.3c1.1-0.1,2.2-0.4,3-0.7c1.5-0.6,2.5-1.4,3-2.4
		c0.5-1,0.8-2.4,0.8-4.1V51c0-1.8-0.4-3.4-1.1-4.9c-0.7-1.5-1.7-2.6-2.9-3.4c-0.9-0.6-2.3-1.2-4.2-1.7c-1.9-0.6-3.5-0.9-5-1v-5.1
		l34.9-1.8l1,1.1v92.7c0,1.7,0.3,3.1,0.9,4.2c0.6,1.1,1.6,1.9,2.9,2.5c0.9,0.4,1.9,0.8,2.9,1.1c1,0.3,2.2,0.6,3.6,0.7V140.4z"/>
	<path class="st1" d="M561.5,47.4c-1.3,0.1-3.1,0.4-5.5,0.8c-2.4,0.4-4.6,1.3-6.5,2.7c-1.7,1.2-2.9,3.4-3.6,6.4
		c-0.7,3-1.1,7.5-1.1,13.3V141h-12.3L471,64.9v46.2c0,5.7,0.4,10.1,1.1,13.1c0.8,3,2,5.2,3.7,6.6c1.2,1,3.2,1.9,6,2.7
		s4.9,1.3,6.5,1.6v5.4h-42.3V135c1.8-0.1,3.9-0.5,6.2-1c2.3-0.5,4.3-1.3,5.9-2.5c1.8-1.3,3-3.4,3.7-6.1c0.7-2.7,1-7.2,1-13.6V65.3
		c0-2.3-0.4-4.5-1.1-6.6c-0.7-2.1-1.8-3.8-3.4-5.3c-1.6-1.6-3.5-2.8-5.6-3.7c-2.1-0.9-4.5-1.6-7.2-2.1V42h37l53.8,66.5V71.4
		c0-5.9-0.4-10.3-1.2-13.2c-0.8-2.9-2-5-3.7-6.4c-1.3-1.1-3.3-2-6-2.7c-2.6-0.8-4.8-1.3-6.4-1.6V42h42.2V47.4z"/>
	<path class="st1" d="M638.3,139c-2,0.9-4.4,1.7-7.2,2.4c-2.8,0.7-5.7,1.1-8.8,1.1c-5.7,0-9.8-0.8-12.5-2.5
		c-2.7-1.7-4.5-4.1-5.5-7.2h-0.4c-1.6,1.6-3.1,2.9-4.5,4c-1.5,1.1-3,2.1-4.7,2.8c-2.2,1-4.3,1.8-6.3,2.3c-2,0.5-4.8,0.8-8.4,0.8
		c-5.4,0-10-1.6-13.8-4.8c-3.8-3.2-5.7-7.4-5.7-12.6c0-3,0.4-5.6,1.3-7.7c0.8-2.1,2-4,3.5-5.6c1.4-1.5,3-2.7,4.8-3.7
		c1.8-1,3.8-1.9,6-2.7c4.2-1.5,9.2-3.1,15-4.8c5.8-1.6,10.1-3.1,12.8-4.4v-6.7c0-1.2-0.1-2.7-0.3-4.6c-0.2-1.9-0.6-3.5-1.2-4.8
		c-0.6-1.5-1.7-2.7-3.1-3.7c-1.4-1-3.2-1.5-5.5-1.5c-2,0-3.7,0.3-5.1,0.9c-1.4,0.6-2.5,1.2-3.3,1.8c0.1,0.9,0.5,2.3,1.2,4.2
		c0.6,1.9,1,3.7,1,5.5c0,0.8-0.2,1.8-0.6,2.9c-0.4,1.2-1,2.1-1.8,2.8c-1.1,0.9-2.3,1.6-3.6,2.1c-1.3,0.5-3.4,0.8-6.1,0.8
		c-3.9,0-6.8-0.9-8.8-2.8c-2-1.9-3-4.3-3-7.3c0-2.6,1-4.9,3.1-7c2.1-2.1,4.6-3.8,7.5-5.1c2.9-1.4,6.3-2.5,10.1-3.2
		c3.8-0.8,7.3-1.1,10.5-1.1c4.5,0,8.6,0.3,12.3,0.8c3.7,0.5,7.1,1.6,10.1,3.3c2.9,1.6,5.1,4,6.8,7c1.7,3.1,2.5,7.1,2.5,12
		c0,5.2-0.1,11.4-0.3,18.6c-0.2,7.2-0.3,11.9-0.3,14.1c0,2.1,0.3,3.7,0.9,4.9c0.6,1.2,1.6,2.1,2.9,2.7c0.8,0.4,2,0.6,3.7,0.7
		s3.2,0.1,4.6,0.1V139z M603.9,102.9c-2.6,0.9-5.2,1.9-7.7,3c-2.6,1.1-4.6,2.3-6.3,3.6c-1.7,1.3-3.1,3-4,5c-1,2-1.5,4.4-1.5,7.1
		c0,3.6,0.8,6.2,2.5,7.9c1.6,1.6,3.7,2.4,6.1,2.4c2.6,0,4.7-0.5,6.3-1.6c1.6-1,3.1-2.3,4.4-3.9L603.9,102.9z"/>
	<path class="st1" d="M714.9,76.7c-2.1,0.3-4.1,1.1-6.1,2.4c-2,1.2-3.6,3.2-4.9,5.8c-3.2,6.8-6.4,13.6-9.5,20.4
		c-3.1,6.9-6.2,13.5-9.2,19.9c-0.9,1.9-2,4.4-3.2,7.5c-1.2,3.1-2.2,5.8-2.9,8.3h-12.8c-5.3-12.3-9.9-22.6-13.6-30.7
		c-3.8-8.1-7.8-16.9-12-26.2c-1-2.2-2.5-3.9-4.5-5.1c-2.1-1.2-4.1-2-6.3-2.3v-5.1h42.7v5.1c-1.6,0-3.4,0.4-5.5,1
		c-2.1,0.6-3.2,1.5-3.2,2.5c0,0.3,0.1,0.7,0.3,1.2c0.2,0.6,0.4,1.2,0.7,1.9c1.5,3.5,3.7,8.6,6.7,15.2c3,6.6,6.2,13.6,9.5,20.9
		c2.3-5,4.5-10,6.6-14.8c2.1-4.8,4.7-11,7.8-18.5c0.4-1.1,0.7-2,0.7-2.7c0.1-0.7,0.1-1.2,0.1-1.4c0-0.8-0.4-1.6-1.2-2.2
		c-0.8-0.6-1.8-1.2-2.9-1.6c-1.2-0.5-2.3-0.8-3.3-1c-1.1-0.2-1.9-0.4-2.6-0.5v-5.1h28.6V76.7z"/>
	<path class="st1" d="M765.8,140.4h-43.8v-5.1c1.2-0.1,2.4-0.2,3.5-0.3c1.2-0.1,2.1-0.4,3-0.7c1.5-0.6,2.5-1.4,3.1-2.4
		s0.9-2.4,0.9-4.1V87.5c0-1.6-0.4-3-1.1-4.3c-0.7-1.2-1.7-2.2-2.8-2.9c-0.8-0.6-2.1-1.1-3.8-1.6c-1.7-0.5-3.2-0.8-4.6-1v-5.1l34-1.8
		l1,1v55.1c0,1.6,0.3,3,1,4.1c0.7,1.1,1.7,2,3,2.5c0.9,0.4,1.9,0.8,3.1,1.1s2.3,0.6,3.5,0.7V140.4z M755.6,45.9c0,3.5-1.4,6.5-4.1,9
		c-2.7,2.5-5.9,3.7-9.6,3.7c-3.7,0-7-1.2-9.7-3.7c-2.7-2.5-4.1-5.5-4.1-9c0-3.5,1.4-6.5,4.1-9c2.7-2.5,5.9-3.7,9.7-3.7
		s7,1.2,9.6,3.7C754.3,39.3,755.6,42.3,755.6,45.9z"/>
	<path class="st1" d="M849.8,79.4h-15.3c1.8,2,3.2,4.2,4.1,6.4s1.4,4.6,1.4,7c0,3.2-0.9,6.2-2.6,9c-1.7,2.8-4,5.1-6.7,6.8
		c-2.8,1.8-6.1,3.2-9.9,4.2c-3.8,1-7.9,1.5-12.3,1.5h-11.3c-0.6,0.4-1.2,1.1-1.8,2c-0.7,0.9-1,1.8-1,2.6c0,2,0.8,3.5,2.4,4.3
		s4.6,1.2,8.8,1.3c4.2,0.1,8.5,0.3,12.8,0.5c4.3,0.3,7.4,0.4,9.2,0.5c2.7,0.1,5.3,0.7,8,1.6c2.6,0.9,4.9,2.2,6.9,3.7
		c2.1,1.6,3.9,3.7,5.3,6.2c1.4,2.5,2.1,5.4,2.1,8.7c0,3.5-0.8,6.8-2.5,9.9c-1.7,3.1-4.3,5.8-7.7,8c-3.7,2.4-8,4.2-13.1,5.5
		c-5.1,1.3-11.4,1.9-19,1.9c-12.2,0-21.4-1.5-27.7-4.4c-6.3-3-9.5-7.4-9.5-13.3c0-3.7,1.7-6.7,5.1-9s8.7-3.7,15.9-3.9v-0.8
		c-4.2-1.4-7.6-3.3-9.9-5.7c-2.4-2.4-3.6-5.2-3.6-8.3c0-1.9,0.5-3.6,1.4-4.9c0.9-1.3,2.2-2.5,3.6-3.5c1.3-0.9,2.9-1.6,4.7-2.3
		c1.8-0.6,3.4-1.1,4.6-1.5v-0.8c-6.2-2.3-10.8-5.1-13.8-8.5c-2.9-3.3-4.4-7.4-4.4-12.2c0-6.8,3.1-12.2,9.4-16.3
		c6.3-4.1,14.2-6.1,23.8-6.1c3.1,0,6.2,0.3,9.1,0.8c2.9,0.5,5.2,1,6.7,1.4h26.9V79.4z M828.9,150.9c0-1.6-0.4-3.1-1.3-4.7
		c-0.9-1.5-2.8-2.8-5.9-3.8c-1.7-0.3-4.4-0.5-8.2-0.6c-3.8-0.1-9-0.1-15.7-0.1c-1.6,1.4-3,3-4,4.9c-1.1,1.9-1.6,4.2-1.6,6.9
		c0,1.2,0.3,2.4,1,3.8c0.6,1.4,1.7,2.7,3,3.9c1.6,1.3,3.4,2.4,5.4,3.2c2,0.8,5,1.1,9,1.1c6,0,10.5-1.2,13.6-3.5
		C827.3,159.8,828.9,156,828.9,150.9z M817.3,92.6c0-5.4-0.9-9.7-2.6-12.8c-1.7-3.1-4.4-4.7-7.9-4.7c-1.8,0-3.4,0.4-4.7,1.3
		c-1.3,0.9-2.4,2.1-3.3,3.7c-0.8,1.6-1.3,3.4-1.6,5.5c-0.3,2.1-0.4,4.3-0.4,6.5c0,5,0.9,9.2,2.6,12.4c1.8,3.2,4.3,4.9,7.5,4.9
		c3.3,0,5.9-1.5,7.7-4.4C816.4,102,817.3,97.9,817.3,92.6z"/>
	<path class="st1" d="M933.3,139c-2,0.9-4.4,1.7-7.2,2.4c-2.8,0.7-5.7,1.1-8.8,1.1c-5.7,0-9.8-0.8-12.5-2.5
		c-2.7-1.7-4.5-4.1-5.5-7.2h-0.4c-1.6,1.6-3.1,2.9-4.5,4c-1.5,1.1-3,2.1-4.7,2.8c-2.2,1-4.3,1.8-6.3,2.3c-2,0.5-4.8,0.8-8.4,0.8
		c-5.4,0-10-1.6-13.8-4.8c-3.8-3.2-5.7-7.4-5.7-12.6c0-3,0.4-5.6,1.3-7.7c0.8-2.1,2-4,3.5-5.6c1.4-1.5,3-2.7,4.8-3.7
		c1.8-1,3.8-1.9,6-2.7c4.2-1.5,9.2-3.1,15-4.8c5.8-1.6,10.1-3.1,12.8-4.4v-6.7c0-1.2-0.1-2.7-0.3-4.6c-0.2-1.9-0.6-3.5-1.2-4.8
		c-0.6-1.5-1.7-2.7-3.1-3.7c-1.4-1-3.2-1.5-5.5-1.5c-2,0-3.7,0.3-5.1,0.9c-1.4,0.6-2.5,1.2-3.3,1.8c0.1,0.9,0.5,2.3,1.2,4.2
		c0.6,1.9,1,3.7,1,5.5c0,0.8-0.2,1.8-0.6,2.9c-0.4,1.2-1,2.1-1.8,2.8c-1.1,0.9-2.3,1.6-3.6,2.1c-1.3,0.5-3.4,0.8-6.1,0.8
		c-3.9,0-6.8-0.9-8.8-2.8c-2-1.9-3-4.3-3-7.3c0-2.6,1-4.9,3.1-7c2.1-2.1,4.6-3.8,7.5-5.1c2.9-1.4,6.3-2.5,10.1-3.2
		c3.8-0.8,7.3-1.1,10.5-1.1c4.5,0,8.6,0.3,12.3,0.8c3.7,0.5,7.1,1.6,10.1,3.3c2.9,1.6,5.1,4,6.8,7c1.7,3.1,2.5,7.1,2.5,12
		c0,5.2-0.1,11.4-0.3,18.6c-0.2,7.2-0.3,11.9-0.3,14.1c0,2.1,0.3,3.7,0.9,4.9c0.6,1.2,1.6,2.1,2.9,2.7c0.8,0.4,2,0.6,3.7,0.7
		s3.2,0.1,4.6,0.1V139z M898.9,102.9c-2.6,0.9-5.2,1.9-7.7,3c-2.6,1.1-4.6,2.3-6.3,3.6c-1.7,1.3-3.1,3-4,5c-1,2-1.5,4.4-1.5,7.1
		c0,3.6,0.8,6.2,2.5,7.9c1.6,1.6,3.7,2.4,6.1,2.4c2.6,0,4.7-0.5,6.3-1.6c1.6-1,3.1-2.3,4.4-3.9L898.9,102.9z"/>
	<path class="st1" d="M988,137.3c-3,1.3-6.1,2.5-9.5,3.5c-3.4,1-7.5,1.6-12.3,1.6c-7.2,0-12.6-1.8-16.1-5.3s-5.2-8.5-5.2-15V79.5
		h-12.5v-7.6h12.8v-21h22.5v21h19.5v7.6h-19.3v38c0,5.4,0.8,9.2,2.3,11.5c1.5,2.3,4.2,3.4,8.1,3.4c1.3,0,3-0.1,5.2-0.3
		c2.2-0.2,3.8-0.4,4.7-0.6V137.3z"/>
	<path class="st1" d="M1063.7,79.8c3.4,3.2,6,7,7.8,11.4c1.8,4.4,2.7,9.2,2.7,14.4c0,5.1-0.9,10-2.7,14.5c-1.8,4.6-4.4,8.5-7.8,11.7
		c-3.7,3.5-8,6.1-13.1,8c-5.1,1.8-10.9,2.8-17.4,2.8c-5.6,0-10.8-0.8-15.6-2.4s-8.9-4-12.6-7.3c-3.5-3.1-6.3-6.9-8.3-11.5
		c-2-4.6-3.1-9.6-3.1-15.3c0-5.5,0.9-10.5,2.7-14.8c1.8-4.3,4.4-8.2,8-11.5c3.4-3.2,7.6-5.7,12.7-7.5c5-1.8,10.6-2.7,16.8-2.7
		c6.5,0,12.2,0.9,17.1,2.7C1055.9,74.1,1060.2,76.6,1063.7,79.8z M1045.9,127.9c1-2.6,1.8-5.7,2.3-9.4c0.5-3.7,0.7-8,0.7-12.9
		c0-3.2-0.2-6.9-0.7-11.1c-0.5-4.2-1.2-7.4-2.1-9.8c-1.1-2.9-2.6-5.2-4.6-6.9c-2-1.7-4.4-2.5-7.5-2.5c-3.3,0-5.9,0.9-7.9,2.7
		c-2,1.8-3.5,4.1-4.5,7c-1,2.6-1.6,5.7-2,9.3c-0.4,3.5-0.6,7.2-0.6,11.1c0,5,0.2,9.2,0.5,12.5c0.3,3.3,1.1,6.6,2.4,10
		c1.1,2.9,2.6,5.1,4.6,6.8c2,1.7,4.5,2.5,7.6,2.5c2.8,0,5.2-0.8,7.1-2.3C1043.2,133.2,1044.8,130.9,1045.9,127.9z"/>
	<path class="st1" d="M1150,84.3c0,3.5-1.1,6.6-3.3,9.3c-2.2,2.7-5,4-8.6,4c-3.4,0-6.2-0.9-8.6-2.6c-2.3-1.7-3.5-4.2-3.5-7.5
		c0-1.6,0.1-2.9,0.3-3.8c0.2-0.9,0.4-1.7,0.6-2.5c-2.1,0.1-4.4,0.8-6.7,2.2c-2.4,1.4-4.4,3.2-6.2,5.5V127c0,1.6,0.3,3,0.8,4
		s1.4,1.9,2.6,2.5c1,0.5,2.7,0.9,5,1.3c2.3,0.3,3.9,0.5,5,0.6v5.1h-46.4v-5.1c1.2-0.1,2.3-0.2,3.5-0.4c1.2-0.2,2.2-0.4,3-0.7
		c1.5-0.5,2.5-1.3,3.1-2.4s0.8-2.5,0.8-4.2V87.5c0-1.7-0.4-3.2-1.2-4.5c-0.8-1.3-1.7-2.4-2.8-3.2c-0.8-0.6-1.9-1-3.2-1.4
		c-1.3-0.4-2.7-0.6-4.2-0.8v-5.1l33.1-1.8l1,1v10.1h0.3c3.2-3.7,6.6-6.6,10.2-8.7c3.6-2.1,7.3-3.2,11.2-3.2c4.3,0,7.8,1.3,10.4,4
		C1148.7,76.7,1150,80.1,1150,84.3z"/>
</g>
</svg>
