<svg xmlns="http://www.w3.org/2000/svg" viewBox="0 0 571 551.25"><defs><style>.cls-1{fill:#fff;}.cls-2,.cls-3,.cls-4,.cls-5,.cls-6{fill:none;stroke-width:2px;}.cls-2,.cls-3,.cls-4{stroke:#333;}.cls-2,.cls-4,.cls-5,.cls-6{stroke-miterlimit:10;}.cls-3,.cls-4,.cls-5,.cls-6{stroke-linecap:round;}.cls-3{stroke-linejoin:round;}.cls-5{stroke:#2157da;}.cls-6{stroke:#0d3fb8;}</style></defs><title>Asset 2</title><g id="Layer_2" data-name="Layer 2"><g id="Hawaii"><path class="cls-1" d="M351.9,127.91H160.44S228,67.63,256.17,67.63C285.84,67.63,351.9,127.91,351.9,127.91Z"/><path class="cls-2" d="M351.9,127.91H160.44S228,67.63,256.17,67.63C285.84,67.63,351.9,127.91,351.9,127.91Z"/><path class="cls-1" d="M416.47,127.56h-122s43.08-36.65,61-36.65C374.36,90.91,416.47,127.56,416.47,127.56Z"/><path class="cls-2" d="M416.47,127.56h-122s43.08-36.65,61-36.65C374.36,90.91,416.47,127.56,416.47,127.56Z"/><line class="cls-3" x1="58.11" y1="470.38" x2="451.91" y2="470.38"/><line class="cls-3" x1="1.15" y1="538.15" x2="1.15" y2="526.05"/><line class="cls-3" x1="1.15" y1="550.25" x2="1.15" y2="544.2"/><line class="cls-3" x1="139.87" y1="127.91" x2="151.97" y2="127.91"/><line class="cls-3" x1="127.77" y1="127.91" x2="133.82" y2="127.91"/><line class="cls-3" x1="470.51" y1="469.86" x2="458.41" y2="469.86"/><line class="cls-3" x1="482.61" y1="469.86" x2="476.56" y2="469.86"/><line class="cls-3" x1="569.87" y1="129.12" x2="569.87" y2="141.22"/><line class="cls-3" x1="569.87" y1="117.02" x2="569.87" y2="123.07"/><path class="cls-3" d="M98.57,469.86h0a72.3,72.3,0,0,1,72.09-72.09H535.51"/><path class="cls-3" d="M1,520H1a49.77,49.77,0,0,1,49.62-49.62h144.6"/><path class="cls-3" d="M170.75,275.24c0-39.65,32.44-71.09,72.09-71.09H474.32"/><path class="cls-3" d="M413.79,348.82H222.09c-13.62,0-39,9.74-39,42.47v6.48"/><path class="cls-3" d="M457.05,330.62c0-30.29-25.15-55.07-55.89-55.07H86.78"/><path class="cls-3" d="M515.87,194.58v-11c0-30.61-24.78-55.66-55.07-55.66H321.64"/><path class="cls-3" d="M570,148.48h0c0,30.62-16.78,55.67-47.07,55.67H417.77"/><path class="cls-1" d="M256.5,17.49h-.7a2.43,2.43,0,0,1-2.43-2.42h0a2.43,2.43,0,0,1,2.43-2.42h3.06A18.94,18.94,0,0,1,282.32,6a11.61,11.61,0,0,1,19.87,1.43,9.6,9.6,0,0,1,12.54,5.26H319a2.43,2.43,0,0,1,2.43,2.42h0A2.43,2.43,0,0,1,319,17.49Z"/><path class="cls-3" d="M256.5,17.49h-.7a2.43,2.43,0,0,1-2.43-2.42h0a2.43,2.43,0,0,1,2.43-2.42h3.06A18.94,18.94,0,0,1,282.32,6a11.61,11.61,0,0,1,19.87,1.43,9.6,9.6,0,0,1,12.54,5.26H319a2.43,2.43,0,0,1,2.43,2.42h0A2.43,2.43,0,0,1,319,17.49Z"/><path class="cls-1" d="M228.55,63.38h.7A2.43,2.43,0,0,0,231.68,61h0a2.43,2.43,0,0,0-2.43-2.43h-3.06a19,19,0,0,0-23.46-6.69,11.6,11.6,0,0,0-19.87,1.44,9.49,9.49,0,0,0-3.66-.73,9.6,9.6,0,0,0-8.88,6h-4.23A2.43,2.43,0,0,0,163.66,61h0a2.43,2.43,0,0,0,2.43,2.43Z"/><path class="cls-3" d="M228.55,63.38h.7A2.43,2.43,0,0,0,231.68,61h0a2.43,2.43,0,0,0-2.43-2.43h-3.06a19,19,0,0,0-23.46-6.69,11.6,11.6,0,0,0-19.87,1.44,9.49,9.49,0,0,0-3.66-.73,9.6,9.6,0,0,0-8.88,6h-4.23A2.43,2.43,0,0,0,163.66,61h0a2.43,2.43,0,0,0,2.43,2.43Z"/><path class="cls-1" d="M435.78,59.49h.63a5.63,5.63,0,0,1,5.48-4,6.07,6.07,0,0,1,2.14.4,5.81,5.81,0,0,1-.17-1.39A6.68,6.68,0,0,1,450.73,48a7,7,0,0,1,5.81,3,11.82,11.82,0,0,1,3.55-.54,11,11,0,0,1,11.09,9h.88a2.66,2.66,0,0,1,2.73,2.57h0a2.66,2.66,0,0,1-2.73,2.57H435.78a2.66,2.66,0,0,1-2.73-2.57h0A2.66,2.66,0,0,1,435.78,59.49Z"/><path class="cls-3" d="M435.78,59.49h.63a5.63,5.63,0,0,1,5.48-4,6.07,6.07,0,0,1,2.14.4,5.81,5.81,0,0,1-.17-1.39A6.68,6.68,0,0,1,450.73,48a7,7,0,0,1,5.81,3,11.82,11.82,0,0,1,3.55-.54,11,11,0,0,1,11.09,9h.88a2.66,2.66,0,0,1,2.73,2.57h0a2.66,2.66,0,0,1-2.73,2.57H435.78a2.66,2.66,0,0,1-2.73-2.57h0A2.66,2.66,0,0,1,435.78,59.49Z"/><path class="cls-1" d="M109,30.44h.63a5.62,5.62,0,0,1,5.48-4,5.86,5.86,0,0,1,2.14.4,5.87,5.87,0,0,1-.16-1.39A6.67,6.67,0,0,1,124,19a7,7,0,0,1,5.81,3,11.88,11.88,0,0,1,3.55-.55,11,11,0,0,1,11.09,9h.88A2.67,2.67,0,0,1,148.05,33h0a2.67,2.67,0,0,1-2.73,2.58H109A2.67,2.67,0,0,1,106.31,33h0A2.67,2.67,0,0,1,109,30.44Z"/><path class="cls-3" d="M109,30.44h.63a5.62,5.62,0,0,1,5.48-4,5.86,5.86,0,0,1,2.14.4,5.87,5.87,0,0,1-.16-1.39A6.67,6.67,0,0,1,124,19a7,7,0,0,1,5.81,3,11.88,11.88,0,0,1,3.55-.55,11,11,0,0,1,11.09,9h.88A2.67,2.67,0,0,1,148.05,33h0a2.67,2.67,0,0,1-2.73,2.58H109A2.67,2.67,0,0,1,106.31,33h0A2.67,2.67,0,0,1,109,30.44Z"/><polygon class="cls-1" points="267.52 316.9 247.93 303.76 228.34 317.84 228.34 323.47 231.6 320.81 231.6 348.82 264.25 348.82 264.25 320.03 267.52 322.53 267.52 316.9"/><polygon class="cls-4" points="231.6 321.6 231.6 348.82 264.25 348.82 264.25 320.66 247.93 309.39 231.6 321.6"/><rect class="cls-4" x="237.46" y="324.16" width="7.51" height="6.13" transform="translate(568.44 86.01) rotate(90)"/><rect class="cls-4" x="249.94" y="324.16" width="7.51" height="6.13" transform="translate(580.92 73.53) rotate(90)"/><rect class="cls-4" x="243.26" y="335.68" width="9.33" height="13.14"/><polygon class="cls-4" points="267.52 322.53 247.93 309.39 228.34 323.47 228.34 317.84 247.93 303.76 267.52 316.9 267.52 322.53"/><polygon class="cls-1" points="307.08 470.17 355.4 470.17 355.4 435.04 307.08 434.81 307.08 470.17"/><polygon class="cls-1" points="354.04 414.69 307.08 414.6 307.08 434.81 361.89 434.81 354.04 414.69"/><polygon class="cls-1" points="254.36 392.65 254.36 414.6 207.39 414.69 199.54 434.81 254.36 434.81 206.04 435.04 206.04 470.17 254.36 470.17 306.97 470.17 306.97 392.65 280.66 369.13 254.36 392.65"/><rect class="cls-1" x="280.55" y="341.87" width="22.73" height="15.16"/><path class="cls-5" d="M287.11,401.1c0,2.84-12.8,2.84-12.8,0,0-6.49,4.27-11.76,6.4-11.76S287.11,394.61,287.11,401.1Z"/><line class="cls-6" x1="280.55" y1="369.39" x2="280.55" y2="342.61"/><rect class="cls-6" x="280.55" y="341.87" width="22.73" height="15.16"/><polygon class="cls-4" points="254.36 434.74 206.04 434.98 206.04 470.07 254.36 470.07 254.36 434.74"/><polygon class="cls-4" points="254.36 414.6 207.39 414.69 199.54 434.81 254.36 434.81 254.36 414.6"/><rect class="cls-4" x="216.82" y="444.91" width="9.43" height="15.46"/><rect class="cls-4" x="235.76" y="444.91" width="9.43" height="15.46"/><polygon class="cls-4" points="307.08 434.74 355.4 434.98 355.4 470.07 307.08 470.07 307.08 434.74"/><polygon class="cls-4" points="307.08 414.6 354.04 414.69 361.89 434.81 307.08 434.81 307.08 414.6"/><rect class="cls-4" x="335.19" y="444.91" width="9.43" height="15.46" transform="translate(679.81 905.28) rotate(-180)"/><rect class="cls-4" x="316.24" y="444.91" width="9.43" height="15.46" transform="translate(641.92 905.28) rotate(-180)"/><polygon class="cls-4" points="306.97 470.07 254.36 470.07 254.36 392.63 280.66 369.13 306.97 392.63 306.97 470.07"/><path class="cls-4" d="M270.86,469.75v-24a9.8,9.8,0,0,1,9.8-9.8h0a9.8,9.8,0,0,1,9.8,9.8v24"/><circle class="cls-4" cx="280.66" cy="400.62" r="11.76"/><polyline class="cls-4" points="374.03 453.76 368.38 453.76 368.38 441.99 387.67 441.99 387.67 453.76 382.03 453.76"/><polygon class="cls-4" points="382.12 448.76 381.26 456.89 378.26 456.89 375.03 456.89 373.84 448.76 382.12 448.76"/><circle class="cls-4" cx="386.6" cy="466.69" r="3.38"/><line class="cls-4" x1="377.96" y1="457.3" x2="377.96" y2="470.42"/><path class="cls-1" d="M76.38,434.71v15.15s-7,.24-9.86,4.48c-1.75,2.63-.94,9.42-.94,9.42h5.93a4.73,4.73,0,0,0-.18,1.26,5,5,0,0,0,10.1,0,5.18,5.18,0,0,0-.17-1.26h37a5.18,5.18,0,0,0-.18,1.26,5.06,5.06,0,0,0,10.11,0,5.18,5.18,0,0,0-.18-1.26h16.59V434.71ZM72.7,461.58l-.08.1Zm2.74-1.52a5,5,0,0,1,1.89,0,5,5,0,0,0-1.89,0Zm-2.33,1.14.27-.23Zm.67-.49c.13-.08.27-.15.41-.22A3.23,3.23,0,0,0,73.78,460.71Zm.79-.39a3.2,3.2,0,0,1,.55-.17A3.2,3.2,0,0,0,74.57,460.32Zm5.08.88a3,3,0,0,0-.27-.23A3,3,0,0,1,79.65,461.2Zm-.67-.49a3.11,3.11,0,0,0-.4-.22Zm-.78-.39a3.86,3.86,0,0,0-.55-.17A3.86,3.86,0,0,1,78.2,460.32Zm1.87,1.26.08.1Zm39.36,0-.08.1Zm2.74-1.52a5,5,0,0,1,1.89,0,5,5,0,0,0-1.89,0Zm-2.33,1.14.27-.23Zm.67-.49c.13-.08.27-.15.41-.22A4.1,4.1,0,0,0,120.51,460.71Zm.79-.39a3.5,3.5,0,0,1,.55-.17A3.5,3.5,0,0,0,121.3,460.32Zm5.08.88a3,3,0,0,0-.27-.23A3,3,0,0,1,126.38,461.2Zm-.67-.49a3.11,3.11,0,0,0-.4-.22Zm-.78-.39a3.5,3.5,0,0,0-.55-.17A3.5,3.5,0,0,1,124.93,460.32Zm1.87,1.26.08.1Z"/><path class="cls-4" d="M76.38,434.71v15.15s-7,.24-9.86,4.48c-1.75,2.63-.94,9.42-.94,9.42h5.93a5,5,0,0,1,9.75,0h37a5,5,0,0,1,9.75,0h16.59V434.71Z"/><rect class="cls-4" x="76.38" y="441.02" width="7.58" height="8.84"/><rect class="cls-4" x="106.69" y="441.02" width="6.5" height="8.84"/><rect class="cls-4" x="118.6" y="441.02" width="6.5" height="8.84"/><rect class="cls-4" x="130.51" y="441.02" width="6.5" height="8.84"/><rect class="cls-4" x="90.28" y="441.02" width="10.1" height="22.73"/><circle class="cls-4" cx="76.38" cy="465.02" r="5.05"/><circle class="cls-4" cx="123.11" cy="465.02" r="5.05"/><path class="cls-1" d="M484.57,329.12V292.94h-28a14,14,0,0,1-10.33,6.15,13.75,13.75,0,1,0-11.75-4.53,14.23,14.23,0,0,1-1.28-1.62H406v36.18H374.77v68.63h141V329.12Zm-49.25-33.71.19.18Zm9.51,3.76.66,0c-.2,0-.39,0-.59,0Z"/><rect class="cls-4" x="430.11" y="365.62" width="15" height="32"/><rect class="cls-4" x="445.11" y="365.62" width="15" height="32"/><rect class="cls-4" x="420.93" y="326.63" width="8.73" height="8.73"/><rect class="cls-4" x="440.74" y="326.63" width="8.73" height="8.73"/><rect class="cls-4" x="420.93" y="344.1" width="8.73" height="8.73"/><rect class="cls-4" x="440.74" y="344.1" width="8.73" height="8.73"/><rect class="cls-4" x="459.61" y="326.63" width="8.73" height="8.73"/><rect class="cls-4" x="420.93" y="309.16" width="8.73" height="8.73"/><rect class="cls-4" x="386" y="362.81" width="8.73" height="8.73"/><rect class="cls-4" x="386" y="345.34" width="8.73" height="8.73"/><rect class="cls-4" x="440.74" y="309.16" width="8.73" height="8.73"/><rect class="cls-4" x="459.61" y="309.16" width="8.73" height="8.73"/><rect class="cls-4" x="459.61" y="344.1" width="8.73" height="8.73"/><path class="cls-4" d="M456.58,292.94a14.05,14.05,0,0,1-23.36,0H406V397.75h78.61V292.94Z"/><circle class="cls-6" cx="444.75" cy="285.45" r="13.73"/><line class="cls-6" x1="444.64" y1="277.96" x2="444.64" y2="294.19"/><line class="cls-6" x1="452.75" y1="286.07" x2="436.53" y2="286.07"/><rect class="cls-4" x="374.77" y="329.12" width="31.19" height="68.63"/><rect class="cls-4" x="495.8" y="362.81" width="8.73" height="8.73"/><rect class="cls-4" x="495.8" y="345.34" width="8.73" height="8.73"/><rect class="cls-4" x="484.57" y="329.12" width="31.19" height="68.63"/><path class="cls-1" d="M283.36,142.13v6.75h5.41v55.41H428V127.78l5.4,3.83v-8.1L391.47,93.78l-41.89,28.37v8.11l7.28-4.93-3.23,2.23v14.57Z"/><polygon class="cls-4" points="428.96 127.56 428.96 204.29 354.63 204.29 354.63 127.56 391.8 101.89 428.96 127.56"/><rect class="cls-4" x="289.77" y="148.88" width="64.86" height="55.41"/><rect class="cls-4" x="402.88" y="144.43" width="8.11" height="19.72" transform="translate(561.22 -252.64) rotate(90)"/><rect class="cls-4" x="373.95" y="144.43" width="8.11" height="19.72" transform="translate(532.3 -223.72) rotate(90)"/><rect class="cls-4" x="318.15" y="163.75" width="8.11" height="25.68" transform="translate(644.4 353.17) rotate(-180)"/><rect class="cls-4" x="303.28" y="163.75" width="8.11" height="25.68" transform="translate(614.67 353.17) rotate(-180)"/><rect class="cls-4" x="333.01" y="163.75" width="8.11" height="25.68" transform="translate(674.13 353.17) rotate(-180)"/><path class="cls-4" d="M402.84,203.49v-23.9a10.49,10.49,0,0,0-10.49-10.49h0a10.49,10.49,0,0,0-10.48,10.49v23.9"/><rect class="cls-4" x="284.36" y="142.13" width="70.27" height="6.76"/><polygon class="cls-4" points="350.58 130.26 392.47 101.89 434.36 131.61 434.36 123.51 392.47 93.78 350.58 122.16 350.58 130.26"/><path class="cls-6" d="M386.68,120.51a32.83,32.83,0,0,1,5.73,1.24,32.83,32.83,0,0,1,5.73-1.24,37,37,0,0,1,6.08,1.35v14.86a37,37,0,0,0-6.08-1.35,29.69,29.69,0,0,0-5.38,1.15.66.66,0,0,1-.7,0,29.69,29.69,0,0,0-5.38-1.15,37,37,0,0,0-6.08,1.35V121.86A37,37,0,0,1,386.68,120.51Z"/><line class="cls-6" x1="392.41" y1="136.72" x2="392.41" y2="121.32"/><polygon class="cls-1" points="242.77 218.83 242.77 167.3 247.93 167.3 247.93 160.86 233.75 160.86 233.75 147.97 224.92 147.97 224.92 160.86 219.4 160.86 219.4 147.97 210.56 147.97 210.56 160.86 187.37 160.86 187.37 167.3 191.24 167.3 191.24 218.83 131.97 218.83 131.97 225.27 136.16 225.27 136.16 275.52 147.44 275.52 180.93 275.52 191.24 275.52 242.77 275.52 253.08 275.52 286.58 275.52 295.59 275.52 329.09 275.52 338.11 275.52 338.11 225.27 341.98 225.27 341.98 218.83 242.77 218.83"/><path class="cls-6" d="M281.42,270.37V251.55a4.33,4.33,0,0,0-4.29-4.37h-14.6a4.34,4.34,0,0,0-4.3,4.37v18.82Z"/><path class="cls-6" d="M267.25,270.37v2.57a2.57,2.57,0,0,1-2.58,2.58h0a2.57,2.57,0,0,1-2.57-2.58v-2.57Z"/><path class="cls-6" d="M277.56,270.37v2.57a2.58,2.58,0,0,1-2.58,2.58h0a2.58,2.58,0,0,1-2.58-2.58v-2.57Z"/><path class="cls-6" d="M266,247.18v-1.94a3.86,3.86,0,0,1,3.87-3.86h0a3.86,3.86,0,0,1,3.86,3.86v1.94"/><rect class="cls-6" x="258.23" y="252.33" width="11.6" height="9.02"/><rect class="cls-6" x="269.83" y="252.33" width="11.6" height="9.02"/><circle class="cls-6" cx="269.83" cy="265.86" r="3.22"/><path class="cls-6" d="M323.94,270.37V251.55a4.34,4.34,0,0,0-4.3-4.37H305a4.33,4.33,0,0,0-4.29,4.37v18.82Z"/><path class="cls-6" d="M309.77,270.37v2.57a2.58,2.58,0,0,1-2.58,2.58h0a2.58,2.58,0,0,1-2.58-2.58v-2.57Z"/><path class="cls-6" d="M320.07,270.37v2.57a2.57,2.57,0,0,1-2.57,2.58h0a2.57,2.57,0,0,1-2.58-2.58v-2.57Z"/><path class="cls-6" d="M308.48,247.18v-1.94a3.86,3.86,0,0,1,3.86-3.86h0a3.86,3.86,0,0,1,3.87,3.86v1.94"/><rect class="cls-6" x="300.75" y="252.33" width="11.6" height="9.02"/><rect class="cls-6" x="312.34" y="252.33" width="11.6" height="9.02"/><circle class="cls-6" cx="312.34" cy="265.86" r="3.22"/><rect class="cls-4" x="207.12" y="241.97" width="19.99" height="33.11"/><rect class="cls-4" x="191.24" y="167.3" width="51.53" height="108.22"/><rect class="cls-4" x="187.37" y="160.86" width="60.55" height="6.44"/><rect class="cls-4" x="136.16" y="225.27" width="55.08" height="50.25"/><rect class="cls-4" x="131.97" y="218.83" width="59.26" height="6.44"/><rect class="cls-4" x="210.56" y="147.97" width="8.83" height="12.88"/><rect class="cls-4" x="224.92" y="147.97" width="8.83" height="12.88"/><rect class="cls-4" x="204.12" y="190.49" width="9.02" height="9.02"/><rect class="cls-4" x="204.12" y="181.47" width="9.02" height="9.02"/><rect class="cls-4" x="222.16" y="190.49" width="9.02" height="9.02"/><rect class="cls-4" x="222.16" y="181.47" width="9.02" height="9.02"/><rect class="cls-4" x="204.12" y="221.41" width="9.02" height="9.02"/><rect class="cls-4" x="204.12" y="212.39" width="9.02" height="9.02"/><rect class="cls-4" x="222.16" y="221.41" width="9.02" height="9.02"/><rect class="cls-4" x="222.16" y="212.39" width="9.02" height="9.02"/><rect class="cls-4" x="147.43" y="238.16" width="33.5" height="9.34"/><rect class="cls-4" x="147.43" y="247.5" width="33.5" height="9.34"/><rect class="cls-4" x="147.43" y="256.84" width="33.5" height="9.34"/><rect class="cls-4" x="147.43" y="266.18" width="33.5" height="9.34"/><rect class="cls-4" x="242.77" y="225.27" width="95.34" height="50.25"/><rect class="cls-4" x="242.77" y="218.83" width="99.2" height="6.44" transform="translate(584.75 444.11) rotate(-180)"/><polygon class="cls-4" points="253.08 238.16 253.08 247.5 253.08 256.84 253.08 266.18 253.08 275.52 286.58 275.52 286.58 266.18 286.58 256.84 286.58 247.5 286.58 238.16 253.08 238.16"/><polygon class="cls-4" points="295.59 238.16 295.59 247.5 295.59 256.84 295.59 266.18 295.59 275.52 329.09 275.52 329.09 266.18 329.09 256.84 329.09 247.5 329.09 238.16 295.59 238.16"/><rect class="cls-4" x="180.34" y="438.5" width="5.81" height="5.81" rx="2.91" ry="2.91"/><path class="cls-4" d="M174.19,460.56l3-8.05a6.32,6.32,0,0,1,6.3-6.3h0a6.32,6.32,0,0,1,6.3,6.3v7.05"/><line class="cls-4" x1="181.07" y1="456.15" x2="181.07" y2="469.56"/><line class="cls-4" x1="185.91" y1="456.15" x2="185.91" y2="469.56"/><rect class="cls-4" x="162.53" y="448.23" width="4.04" height="4.04" rx="2.02" ry="2.02"/><path class="cls-4" d="M159.34,463.09l1-5.12a4.4,4.4,0,0,1,4.38-4.38h0A4.4,4.4,0,0,1,169.1,458l4.09,3.59"/><line class="cls-4" x1="163.03" y1="460.42" x2="163.03" y2="469.83"/><line class="cls-4" x1="166.4" y1="460.42" x2="166.4" y2="469.83"/><rect class="cls-4" x="365.09" y="244.5" width="5.81" height="5.81" rx="2.91" ry="2.91"/><path class="cls-4" d="M360.94,265.56l1-7.05a6.32,6.32,0,0,1,6.3-6.3h0a6.32,6.32,0,0,1,6.3,6.3v7.36"/><polyline class="cls-4" points="365.82 262.15 364.82 269.18 367.82 273.56"/><polyline class="cls-4" points="370.66 262.15 370.66 269.18 370.66 275.56"/><rect class="cls-4" x="222.76" y="369.39" width="5.81" height="5.81" rx="2.91" ry="2.91"/><path class="cls-4" d="M235.61,383.46a14.63,14.63,0,0,0-3-5c-1.58-1.58-4-3-5.7-2.35h0l1.7,7.35"/><polyline class="cls-3" points="222.61 386.46 218.61 387.46 218.61 394.46"/><circle class="cls-4" cx="228.11" cy="389.96" r="6.5"/><rect class="cls-4" x="112.14" y="244.5" width="5.81" height="5.81" rx="2.91" ry="2.91" transform="translate(230.09 494.81) rotate(-180)"/><path class="cls-4" d="M124.51,264.56l-3.41-6.05a6.32,6.32,0,0,0-6.3-6.3h0a6.32,6.32,0,0,0-6.29,6.3v7.36"/><line class="cls-3" x1="117.23" y1="262.15" x2="120.51" y2="274.56"/><polyline class="cls-3" points="113.38 262.15 112.51 269.56 108.38 274.56"/><rect class="cls-4" x="447.97" y="96.72" width="5.81" height="5.81" rx="2.91" ry="2.91"/><path class="cls-4" d="M441.41,116.78l3.41-6a6.31,6.31,0,0,1,6.3-6.3h0a6.31,6.31,0,0,1,6.29,6.3v7.36"/><line class="cls-3" x1="448.69" y1="114.38" x2="445.41" y2="126.78"/><polyline class="cls-3" points="452.54 114.38 453.41 121.78 457.54 126.78"/><path class="cls-1" d="M85.18,229.34s-15.55-3.22-16.75,13.53Z"/><path class="cls-1" d="M102,242.37s-.55-15.87-17.11-13.08Z"/><path class="cls-1" d="M86.1,229.68s-4.86-15.12-20-7.92Z"/><path class="cls-1" d="M85.71,229.1s6.94-14.29,20.94-5Z"/><path class="cls-1" d="M85.58,229.15s-7.56-14,8.14-19.94Z"/><path class="cls-3" d="M85.18,229.34s-15.55-3.22-16.75,13.53Z"/><path class="cls-3" d="M102,242.37s-.55-15.87-17.11-13.08Z"/><path class="cls-3" d="M86.1,229.68s-4.86-15.12-20-7.92Z"/><path class="cls-3" d="M85.71,229.1s6.94-14.29,20.94-5Z"/><path class="cls-3" d="M85.58,229.15s-7.56-14,8.14-19.94Z"/><line class="cls-4" x1="85.6" y1="231.46" x2="85.6" y2="275.56"/><path class="cls-1" d="M193.18,81.34s-15.55-3.22-16.75,13.53Z"/><path class="cls-1" d="M210,94.37s-.55-15.87-17.11-13.08Z"/><path class="cls-1" d="M194.1,81.68s-4.86-15.12-20-7.92Z"/><path class="cls-1" d="M193.71,81.1s6.94-14.29,20.94-5Z"/><path class="cls-1" d="M193.58,81.15s-7.56-14,8.14-19.94Z"/><path class="cls-3" d="M193.18,81.34s-15.55-3.22-16.75,13.53Z"/><path class="cls-3" d="M210,94.37s-.55-15.87-17.11-13.08Z"/><path class="cls-3" d="M194.1,81.68s-4.86-15.12-20-7.92Z"/><path class="cls-3" d="M193.71,81.1s6.94-14.29,20.94-5Z"/><path class="cls-3" d="M193.58,81.15s-7.56-14,8.14-19.94Z"/><line class="cls-4" x1="193.6" y1="83.46" x2="193.6" y2="127.56"/><path class="cls-1" d="M467.18,157.34s-15.55-3.22-16.75,13.53Z"/><path class="cls-1" d="M484,170.37s-.55-15.87-17.11-13.08Z"/><path class="cls-1" d="M468.1,157.68s-4.86-15.12-20-7.92Z"/><path class="cls-1" d="M467.71,157.1s6.94-14.29,20.94-5Z"/><path class="cls-1" d="M467.58,157.15s-7.56-14,8.14-19.94Z"/><path class="cls-3" d="M467.18,157.34s-15.55-3.22-16.75,13.53Z"/><path class="cls-3" d="M484,170.37s-.55-15.87-17.11-13.08Z"/><path class="cls-3" d="M468.1,157.68s-4.86-15.12-20-7.92Z"/><path class="cls-3" d="M467.71,157.1s6.94-14.29,20.94-5Z"/><path class="cls-3" d="M467.58,157.15s-7.56-14,8.14-19.94Z"/><line class="cls-4" x1="467.6" y1="159.46" x2="467.6" y2="203.56"/><path class="cls-1" d="M536.18,351.34s-15.55-3.22-16.75,13.53Z"/><path class="cls-1" d="M553,364.37s-.55-15.87-17.11-13.08Z"/><path class="cls-1" d="M537.1,351.68s-4.86-15.12-20-7.92Z"/><path class="cls-1" d="M536.71,351.1s6.94-14.29,20.94-5Z"/><path class="cls-1" d="M536.58,351.15s-7.56-14,8.14-19.94Z"/><path class="cls-3" d="M536.18,351.34s-15.55-3.22-16.75,13.53Z"/><path class="cls-3" d="M553,364.37s-.55-15.87-17.11-13.08Z"/><path class="cls-3" d="M537.1,351.68s-4.86-15.12-20-7.92Z"/><path class="cls-3" d="M536.71,351.1s6.94-14.29,20.94-5Z"/><path class="cls-3" d="M536.58,351.15s-7.56-14,8.14-19.94Z"/><line class="cls-4" x1="536.6" y1="353.46" x2="536.6" y2="397.56"/><path class="cls-1" d="M158.18,352.34s-15.55-3.22-16.75,13.53Z"/><path class="cls-1" d="M175,365.37s-.55-15.87-17.11-13.08Z"/><path class="cls-1" d="M159.1,352.68s-4.86-15.12-20-7.92Z"/><path class="cls-1" d="M158.71,352.1s6.94-14.29,20.94-5Z"/><path class="cls-1" d="M158.58,352.15s-7.56-14,8.14-19.94Z"/><path class="cls-3" d="M158.18,352.34s-15.55-3.22-16.75,13.53Z"/><path class="cls-3" d="M175,365.37s-.55-15.87-17.11-13.08Z"/><path class="cls-3" d="M159.1,352.68s-4.86-15.12-20-7.92Z"/><path class="cls-3" d="M158.71,352.1s6.94-14.29,20.94-5Z"/><path class="cls-3" d="M158.58,352.15s-7.56-14,8.14-19.94Z"/><line class="cls-4" x1="158.6" y1="354.46" x2="158.6" y2="398.56"/><path class="cls-1" d="M117.18,374.34s-15.55-3.22-16.75,13.53Z"/><path class="cls-1" d="M134,387.37s-.55-15.87-17.11-13.08Z"/><path class="cls-1" d="M118.1,374.68s-4.86-15.12-20-7.92Z"/><path class="cls-1" d="M117.71,374.1s6.94-14.29,20.94-5Z"/><path class="cls-1" d="M117.58,374.15s-7.56-14,8.14-19.94Z"/><path class="cls-3" d="M117.18,374.34s-15.55-3.22-16.75,13.53Z"/><path class="cls-3" d="M134,387.37s-.55-15.87-17.11-13.08Z"/><path class="cls-3" d="M118.1,374.68s-4.86-15.12-20-7.92Z"/><path class="cls-3" d="M117.71,374.1s6.94-14.29,20.94-5Z"/><path class="cls-3" d="M117.58,374.15s-7.56-14,8.14-19.94Z"/><line class="cls-4" x1="117.6" y1="376.46" x2="117.6" y2="420.56"/><path class="cls-1" d="M511.87,203.56s4.44-20.8,3.14-26c0,0,6.5,6.5,2.6,26Z"/><path class="cls-3" d="M511.87,203.56s4.44-20.8,3.14-26c0,0,6.5,6.5,2.6,26Z"/><path class="cls-1" d="M515,203.56s-3.9-18.2-13-20.8c0,0,7.8,14.3,6.5,20.8Z"/><path class="cls-1" d="M508.51,203.56s-3.9-11.7-13-11.7c0,0,7.8,7.8,7.8,11.7Z"/><path class="cls-1" d="M515,203.56s3.9-18.2,13-20.8c0,0-7.8,14.3-6.5,20.8Z"/><path class="cls-1" d="M521.51,203.56s3.9-11.7,13-11.7c0,0-7.8,7.8-7.8,11.7Z"/><path class="cls-3" d="M515,203.56s-3.9-18.2-13-20.8c0,0,7.8,14.3,6.5,20.8Z"/><path class="cls-3" d="M508.51,203.56s-3.9-11.7-13-11.7c0,0,7.8,7.8,7.8,11.7Z"/><path class="cls-3" d="M515,203.56s3.9-18.2,13-20.8c0,0-7.8,14.3-6.5,20.8Z"/><path class="cls-3" d="M521.51,203.56s3.9-11.7,13-11.7c0,0-7.8,7.8-7.8,11.7Z"/><path class="cls-1" d="M327.87,348.56s4.44-20.8,3.14-26c0,0,6.5,6.5,2.6,26Z"/><path class="cls-3" d="M327.87,348.56s4.44-20.8,3.14-26c0,0,6.5,6.5,2.6,26Z"/><path class="cls-1" d="M331,348.56s-3.9-18.2-13-20.8c0,0,7.8,14.3,6.5,20.8Z"/><path class="cls-1" d="M324.51,348.56s-3.9-11.7-13-11.7c0,0,7.8,7.8,7.8,11.7Z"/><path class="cls-1" d="M331,348.56s3.9-18.2,13-20.8c0,0-7.8,14.3-6.5,20.8Z"/><path class="cls-1" d="M337.51,348.56s3.9-11.7,13-11.7c0,0-7.8,7.8-7.8,11.7Z"/><path class="cls-3" d="M331,348.56s-3.9-18.2-13-20.8c0,0,7.8,14.3,6.5,20.8Z"/><path class="cls-3" d="M324.51,348.56s-3.9-11.7-13-11.7c0,0,7.8,7.8,7.8,11.7Z"/><path class="cls-3" d="M331,348.56s3.9-18.2,13-20.8c0,0-7.8,14.3-6.5,20.8Z"/><path class="cls-3" d="M337.51,348.56s3.9-11.7,13-11.7c0,0-7.8,7.8-7.8,11.7Z"/><path class="cls-1" d="M425.87,470.56s4.44-20.8,3.14-26c0,0,6.5,6.5,2.6,26Z"/><path class="cls-3" d="M425.87,470.56s4.44-20.8,3.14-26c0,0,6.5,6.5,2.6,26Z"/><path class="cls-1" d="M429,470.56s-3.9-18.2-13-20.8c0,0,7.8,14.3,6.5,20.8Z"/><path class="cls-1" d="M422.51,470.56s-3.9-11.7-13-11.7c0,0,7.8,7.8,7.8,11.7Z"/><path class="cls-1" d="M429,470.56s3.9-18.2,13-20.8c0,0-7.8,14.3-6.5,20.8Z"/><path class="cls-1" d="M435.51,470.56s3.9-11.7,13-11.7c0,0-7.8,7.8-7.8,11.7Z"/><path class="cls-3" d="M429,470.56s-3.9-18.2-13-20.8c0,0,7.8,14.3,6.5,20.8Z"/><path class="cls-3" d="M422.51,470.56s-3.9-11.7-13-11.7c0,0,7.8,7.8,7.8,11.7Z"/><path class="cls-3" d="M429,470.56s3.9-18.2,13-20.8c0,0-7.8,14.3-6.5,20.8Z"/><path class="cls-3" d="M435.51,470.56s3.9-11.7,13-11.7c0,0-7.8,7.8-7.8,11.7Z"/><path class="cls-4" d="M112.51,181.11c6,0,8.31-5.87,14.63-5.87s7.67,6.32,16.69,6.32c8.12,0,9.47-6.77,16.69-6.77,6.77,0,6.77,5.42,14,5.42"/><path class="cls-4" d="M77.51,166.11c6,0,8.31-5.87,14.63-5.87s7.67,6.32,16.69,6.32c8.12,0,9.47-6.77,16.69-6.77,6.77,0,6.77,5.42,14,5.42"/><path class="cls-4" d="M327.51,524.11c6,0,8.31-5.87,14.63-5.87s7.67,6.32,16.69,6.32c8.12,0,9.47-6.77,16.69-6.77,6.77,0,6.77,5.42,14,5.42"/><path class="cls-4" d="M359.51,509.11c6,0,8.31-5.87,14.63-5.87s7.67,6.32,16.69,6.32c8.12,0,9.47-6.77,16.69-6.77,6.77,0,6.77,5.42,14,5.42"/><path class="cls-4" d="M48.51,330.11c6,0,8.31-5.87,14.63-5.87s7.67,6.32,16.69,6.32c8.12,0,9.47-6.77,16.69-6.77,6.77,0,6.77,5.42,14,5.42"/><path class="cls-4" d="M505.51,260.11c6,0,8.31-5.87,14.63-5.87s7.67,6.32,16.69,6.32c8.12,0,9.47-6.77,16.69-6.77,6.77,0,6.77,5.42,14,5.42"/></g></g></svg>