<svg xmlns="http://www.w3.org/2000/svg" viewBox="0 0 159.92 98"><defs><style>.cls-1,.cls-2,.cls-3{fill:none;stroke-miterlimit:10;stroke-width:2px;}.cls-1,.cls-3{stroke:#333;}.cls-2{stroke:#0d3fb8;}.cls-2,.cls-3{stroke-linecap:round;}</style></defs><title>Asset 12</title><g id="Layer_2" data-name="Layer 2"><g id="Secondary_Illustration" data-name="Secondary Illustration"><path class="cls-1" d="M147.34,89.22V9.12A8.13,8.13,0,0,0,139.21,1H22.84a8.13,8.13,0,0,0-8.12,8.12V89.73"/><polygon class="cls-1" points="138.75 11.49 138.75 72.01 138.74 81.96 109.65 82.1 23.31 82.1 23.31 11.49 138.75 11.49"/><path class="cls-1" d="M97.22,88.41H1C1,92.09,4.29,97,8.3,97H151.62c4,0,7.3-4.91,7.3-8.59Z"/><circle class="cls-2" cx="80.43" cy="68.95" r="4.23"/><path class="cls-2" d="M79.9,60a3.17,3.17,0,0,1-3.17-3.17V52.17c0-5.18,3.78-8.27,6.83-10.76s5.1-4.31,5.1-7.14a7.67,7.67,0,1,0-15.34,0,3.18,3.18,0,1,1-6.36,0,14,14,0,0,1,28.05,0c0,6-4.12,9.36-7.43,12.06-2.79,2.28-4.5,3.78-4.5,5.84v4.61A3.17,3.17,0,0,1,79.9,60Z"/><line class="cls-3" x1="55.25" y1="61.01" x2="44.23" y2="69.38"/><line class="cls-3" x1="51.63" y1="46.35" x2="35.68" y2="46.58"/><line class="cls-3" x1="54.58" y1="32.38" x2="43.54" y2="23.86"/><line class="cls-3" x1="106.66" y1="32.22" x2="117.69" y2="23.86"/><line class="cls-3" x1="110.28" y1="46.89" x2="126.24" y2="46.65"/><line class="cls-3" x1="107.34" y1="60.85" x2="118.38" y2="69.38"/></g></g></svg>