<?xml version="1.0" encoding="utf-8"?>
<!-- Generator: Adobe Illustrator 22.1.0, SVG Export Plug-In . SVG Version: 6.00 Build 0)  -->
<svg version="1.1" id="Layer_1" xmlns="http://www.w3.org/2000/svg" xmlns:xlink="http://www.w3.org/1999/xlink" x="0px" y="0px"
	 viewBox="0 0 97 84.5" style="enable-background:new 0 0 97 84.5;" xml:space="preserve">
<style type="text/css">
	.st0{fill:none;stroke:#333333;stroke-width:2;stroke-linecap:round;stroke-miterlimit:10;}
	.st1{fill:#FFFFFF;stroke:#333333;stroke-width:2;stroke-miterlimit:10;}
	.st2{fill:#FFFFFF;stroke:#333333;stroke-width:2.3457;stroke-miterlimit:10;}
	.st3{fill:#FFFFFF;stroke:#0D3FBB;stroke-width:2;stroke-miterlimit:10;}
</style>
<title>Asset 50</title>
<g id="Layer_2_1_">
	<g id="Small_Icons">
		<circle class="st0" cx="32.7" cy="20.9" r="17.8"/>
		<path class="st0" d="M62.5,68.6c0,16.6-59.7,16.6-59.7,0s13.3-29.9,29.9-29.9S62.5,52.4,62.5,68.6z"/>
	</g>
</g>
<path class="st1" d="M61.9,34.5v-5.2c0-0.6,0.4-1.1,1-1.2c3.7-0.8,7.7-0.9,11.6,0c0.6,0.1,1,0.6,1,1.2v5.2c2.4,0.8,4.6,2.1,6.5,3.7
	l4.5-2.6c0.5-0.3,1.2-0.2,1.6,0.2c2.6,2.9,4.6,6.3,5.8,10.1c0.2,0.6-0.1,1.2-0.6,1.5L88.8,50c0.5,2.5,0.5,5,0,7.5l0,0l4.5,2.6
	c0.5,0.3,0.8,0.9,0.6,1.5c-1.2,3.8-3.2,7.2-5.8,10.1c-0.4,0.4-1.1,0.5-1.6,0.2L82,69.3c-1.9,1.6-4.1,2.9-6.5,3.7v5.2
	c0,0.6-0.4,1.1-1,1.2c-3.7,0.8-7.7,0.9-11.6,0c-0.6-0.1-1-0.6-1-1.2V73c-2.4-0.8-4.6-2.1-6.5-3.7l-4.5,2.6c-0.5,0.3-1.2,0.2-1.6-0.2
	c-2.6-2.9-4.6-6.3-5.8-10.1c-0.2-0.6,0.1-1.2,0.6-1.5l4.5-2.6c-0.5-2.5-0.5-5,0-7.5l-4.5-2.6c-0.5-0.3-0.8-0.9-0.6-1.5
	c1.2-3.8,3.2-7.2,5.8-10.1c0.4-0.4,1.1-0.5,1.6-0.2l4.5,2.6"/>
<path class="st2" d="M54,38.3c3.2-2.5,4.6-3.1,8.5-4.5"/>
<circle class="st3" cx="68.7" cy="53.3" r="8.5"/>
</svg>
