<svg xmlns="http://www.w3.org/2000/svg" viewBox="0 0 151.42 159.9"><defs><style>.cls-1,.cls-2,.cls-3,.cls-5{fill:none;}.cls-1,.cls-2,.cls-4,.cls-5{stroke:#333;}.cls-1,.cls-2,.cls-4{stroke-miterlimit:10;}.cls-1,.cls-2,.cls-3,.cls-4,.cls-5{stroke-width:2px;}.cls-2,.cls-3,.cls-5{stroke-linecap:round;}.cls-3{stroke:#0d3fb8;}.cls-3,.cls-5{stroke-linejoin:round;}.cls-4{fill:#fff;}</style></defs><title>Asset 8</title><g id="Layer_2" data-name="Layer 2"><g id="Secondary_Illustration" data-name="Secondary Illustration"><line class="cls-1" x1="91.96" y1="85.95" x2="91.96" y2="49.77"/><polyline class="cls-1" points="91.96 50.9 91.96 28.29 64.67 28.29 64.67 1 1 1 1 110.15 74.25 110.15"/><line class="cls-2" x1="30.83" y1="49.18" x2="77.1" y2="49.18"/><line class="cls-2" x1="30.83" y1="68.39" x2="77.1" y2="68.39"/><line class="cls-2" x1="30.83" y1="87.61" x2="77.1" y2="87.61"/><polyline class="cls-3" points="11.85 66.26 16.6 71 23.71 62.7"/><polyline class="cls-3" points="11.85 48.46 16.6 53.21 23.71 44.91"/><polyline class="cls-3" points="11.85 86.42 16.6 91.17 23.71 82.87"/><line class="cls-4" x1="116.5" y1="124.65" x2="123.72" y2="132.2"/><path class="cls-1" d="M120.87,135.06l5.71-5.71,22.57,22.56c2.86,2.86,0,5.72,0,5.72s-2.86,2.85-5.71,0Z"/><circle class="cls-1" cx="98.62" cy="109.1" r="24.15"/><path class="cls-3" d="M98.62,92.65a14.44,14.44,0,0,1,14.45,14.45"/><line class="cls-5" x1="65.88" y1="1" x2="91.96" y2="27.08"/></g></g></svg>