<svg xmlns="http://www.w3.org/2000/svg" viewBox="0 0 141.86 143.57"><defs><style>.cls-1,.cls-2,.cls-5{fill:none;}.cls-1,.cls-2,.cls-3{stroke:#333;}.cls-1,.cls-3,.cls-4,.cls-5{stroke-linecap:round;}.cls-1,.cls-2,.cls-3,.cls-5{stroke-miterlimit:10;}.cls-1,.cls-2,.cls-3,.cls-4,.cls-5{stroke-width:2px;}.cls-3,.cls-4{fill:#fff;}.cls-4,.cls-5{stroke:#0d3fb8;}.cls-4{stroke-linejoin:round;}</style></defs><title>Asset 7</title><g id="Layer_2" data-name="Layer 2"><g id="Secondary_Illustration" data-name="Secondary Illustration"><polyline class="cls-1" points="88.7 64.98 88.7 128.23 77.14 128.23"/><polyline class="cls-1" points="12.56 50.85 12.56 40.31 77 40.31"/><polyline class="cls-2" points="77.14 91.82 77 142.57 1 142.57 1 50.84 54.3 50.84 54.3 73.77 77.14 73.77 77.14 92.77"/><line class="cls-3" x1="64.42" y1="60.31" x2="54.77" y2="50.85"/><line class="cls-3" x1="77.14" y1="72.77" x2="69.6" y2="65.38"/><line class="cls-4" x1="18.76" y1="91.33" x2="57.49" y2="91.33"/><line class="cls-4" x1="18.76" y1="107.48" x2="57.49" y2="107.48"/><line class="cls-4" x1="18.76" y1="123.63" x2="57.49" y2="123.63"/><polygon class="cls-1" points="140.08 64.98 61.92 64.98 102 1.9 140.08 64.98"/><rect class="cls-5" x="98" y="18.98" width="8" height="28" rx="4" ry="4"/><circle class="cls-5" cx="102" cy="54.98" r="4"/></g></g></svg>