<svg xmlns="http://www.w3.org/2000/svg" viewBox="0 0 135.86 143.59"><defs><style>.cls-1,.cls-2,.cls-5{fill:none;}.cls-1,.cls-2,.cls-3{stroke:#333;}.cls-1,.cls-3,.cls-4,.cls-5{stroke-linecap:round;}.cls-1,.cls-2,.cls-3,.cls-5{stroke-miterlimit:10;}.cls-1,.cls-2,.cls-3,.cls-4,.cls-5{stroke-width:2px;}.cls-3,.cls-4{fill:#fff;}.cls-4,.cls-5{stroke:#0d3fb8;}.cls-4{stroke-linejoin:round;}</style></defs><title>Asset 6</title><g id="Layer_2" data-name="Layer 2"><g id="Secondary_Illustration" data-name="Secondary Illustration"><polyline class="cls-1" points="88.7 67.75 88.7 128.25 77.14 128.25"/><polyline class="cls-1" points="12.56 50.87 12.56 40.33 66.77 40.33"/><polyline class="cls-2" points="77.14 91.84 77 142.59 1 142.59 1 50.85 54.3 50.85 54.3 73.79 77.14 73.79 77.14 92.79"/><line class="cls-3" x1="77.14" y1="72.79" x2="54.77" y2="50.87"/><line class="cls-4" x1="18.76" y1="91.34" x2="57.49" y2="91.34"/><line class="cls-4" x1="18.76" y1="107.49" x2="57.49" y2="107.49"/><line class="cls-4" x1="18.76" y1="123.64" x2="57.49" y2="123.64"/><circle class="cls-2" cx="100.81" cy="35.05" r="34.05"/><path class="cls-5" d="M96.69,52.66a4,4,0,0,1-2.82-1.17l-13-13a4,4,0,0,1,5.65-5.66L96.73,43l20.48-19.91a4,4,0,1,1,5.58,5.74L99.48,51.53A4,4,0,0,1,96.69,52.66Z"/></g></g></svg>