<svg xmlns="http://www.w3.org/2000/svg" viewBox="0 0 183.86 135.53"><defs><style>.cls-1,.cls-2,.cls-3{fill:none;stroke-miterlimit:10;stroke-width:2px;}.cls-1,.cls-2{stroke:#333;}.cls-2,.cls-3{stroke-linecap:round;}.cls-3{stroke:#0d3fb8;}</style></defs><title>Asset 4</title><g id="Layer_2" data-name="Layer 2"><g id="Secondary_Illustration" data-name="Secondary Illustration"><path class="cls-1" d="M14.67,98.82V10a9,9,0,0,1,9-9H151.92a9,9,0,0,1,9,9V68.53"/><polyline class="cls-1" points="151.41 63.93 151.41 12.57 24.14 12.57 24.14 90.41 115.33 90.41"/><polyline class="cls-1" points="108.28 49.38 108.28 39.19 95.98 39.19 95.98 26.88 67.27 26.88 67.27 76.09 108.28 76.09 108.28 48.87"/><line class="cls-2" x1="108.28" y1="38.65" x2="96.23" y2="26.89"/><line class="cls-3" x1="77.35" y1="48.6" x2="98.2" y2="48.6"/><line class="cls-3" x1="77.35" y1="57.27" x2="98.2" y2="57.27"/><line class="cls-3" x1="77.35" y1="65.93" x2="98.2" y2="65.93"/><path class="cls-1" d="M114.11,98.82H1c0,4.05,3.62,9.47,8.05,9.47H114.11"/><polyline class="cls-3" points="157.98 132.13 157.98 98.66 166.95 98.66 149.01 80.72 131.08 98.66 140.04 98.66 140.04 132.13"/><circle class="cls-1" cx="148.36" cy="100.03" r="34.5"/></g></g></svg>