<svg xmlns="http://www.w3.org/2000/svg" viewBox="0 0 98 132.17"><defs><style>.cls-1,.cls-2,.cls-3{fill:none;stroke-linecap:round;stroke-width:2px;}.cls-1,.cls-3{stroke:#333;}.cls-1{stroke-miterlimit:10;}.cls-2{stroke:#0d3fb8;}.cls-2,.cls-3{stroke-linejoin:round;}</style></defs><title>Asset 9</title><g id="Layer_2" data-name="Layer 2"><g id="Secondary_Illustration" data-name="Secondary Illustration"><polyline class="cls-1" points="96.88 131.17 1.12 63.76 1.12 131.14 96.88 131.14 96.88 63.76 1.12 131.17"/><line class="cls-1" x1="13.09" y1="50.38" x2="1" y2="61.78"/><line class="cls-1" x1="97" y1="61.78" x2="84.91" y2="50.38"/><line class="cls-1" x1="36.51" y1="39.62" x2="72.82" y2="39.62"/><line class="cls-1" x1="36.51" y1="54.7" x2="72.82" y2="54.7"/><line class="cls-1" x1="36.51" y1="69.79" x2="72.82" y2="69.79"/><polyline class="cls-2" points="21.61 53.03 25.33 56.75 30.92 50.23"/><polyline class="cls-2" points="21.61 39.06 25.33 42.78 30.92 36.27"/><polyline class="cls-2" points="21.61 68.86 25.33 72.58 30.92 66.06"/><line class="cls-3" x1="63.96" y1="1" x2="84.91" y2="21.95"/><line class="cls-1" x1="64.74" y1="86.29" x2="34.6" y2="86.29"/><polyline class="cls-1" points="13.09 71.88 13.09 1 62.93 1 62.93 23.44 84.91 23.44 84.91 71.08"/></g></g></svg>