<svg xmlns="http://www.w3.org/2000/svg" viewBox="0 0 264 203.89"><defs><style>.cls-1,.cls-2,.cls-3,.cls-4{fill:none;stroke-width:2px;}.cls-1,.cls-2{stroke:#333;stroke-miterlimit:10;}.cls-2,.cls-3{stroke-linecap:round;}.cls-3,.cls-4{stroke:#0d3fb8;stroke-linejoin:round;}</style></defs><title>Asset 13</title><g id="Layer_2" data-name="Layer 2"><g id="Secondary_Illustration" data-name="Secondary Illustration"><path class="cls-1" d="M48.32,98.79V10a9,9,0,0,1,9-8.95H185.52a9,9,0,0,1,9,9V78.81"/><polygon class="cls-1" points="185.01 79.27 185.01 12.57 57.78 12.57 57.78 90.38 152.94 90.38 152.94 79.27 185.01 79.27"/><path class="cls-2" d="M239.87,156.62A23.2,23.2,0,0,1,263,179.76h0a23.2,23.2,0,0,1-23.13,23.13h-84.3"/><line class="cls-2" x1="118.77" y1="202.89" x2="128.23" y2="202.89"/><line class="cls-2" x1="133.49" y1="202.89" x2="147.16" y2="202.89"/><path class="cls-2" d="M98.79,131.39H24.13A23.2,23.2,0,0,1,1,108.25H1A23.2,23.2,0,0,1,24.13,85.12H37.8"/><line class="cls-2" x1="38.85" y1="140.85" x2="113.51" y2="140.85"/><line class="cls-2" x1="133.49" y1="131.39" x2="124.03" y2="131.39"/><line class="cls-2" x1="118.77" y1="131.39" x2="105.1" y2="131.39"/><rect class="cls-1" x="76.71" y="54.63" width="36.8" height="19.91" rx="5.96" ry="5.96"/><line class="cls-2" x1="87.64" y1="33.18" x2="154.52" y2="33.18"/><line class="cls-2" x1="77.13" y1="42.85" x2="165.03" y2="42.85"/><polyline class="cls-3" points="90.38 64.09 94.58 68.3 100.89 60.94"/><rect class="cls-1" x="125.08" y="54.63" width="36.8" height="19.91" rx="5.96" ry="5.96"/><polyline class="cls-2" points="221.82 176.01 233.57 176.01 233.57 79.27 152.94 79.27 152.94 90.38"/><polyline class="cls-1" points="221.32 134.59 221.32 114.55 197.13 114.55 197.13 90.37 140.7 90.37 140.7 187.12 221.32 187.12 221.32 133.59"/><line class="cls-2" x1="221.32" y1="113.5" x2="197.63" y2="90.38"/><line class="cls-2" x1="167.14" y1="133.07" x2="208.15" y2="133.07"/><line class="cls-2" x1="167.14" y1="150.1" x2="208.15" y2="150.1"/><line class="cls-2" x1="167.14" y1="167.14" x2="208.15" y2="167.14"/><polyline class="cls-3" points="150.31 148.21 154.52 152.42 160.83 145.06"/><polyline class="cls-3" points="150.31 132.44 154.52 136.64 160.83 129.28"/><polyline class="cls-3" points="150.31 166.09 154.52 170.29 160.83 162.93"/><polyline class="cls-4" points="163.98 91.43 163.98 107.2 158.73 103.52 153.47 107.2 153.47 91.43"/><line class="cls-3" x1="139.8" y1="68.3" x2="147.16" y2="60.94"/><line class="cls-3" x1="139.8" y1="60.94" x2="147.16" y2="68.3"/><path class="cls-1" d="M140.7,98.79h-106c0,4,3.62,9.46,8.05,9.46h98Z"/></g></g></svg>