<svg xmlns="http://www.w3.org/2000/svg" viewBox="0 0 96.33 88.36"><defs><style>.cls-1,.cls-2,.cls-3,.cls-4{fill:none;stroke-width:2px;}.cls-1,.cls-2,.cls-4{stroke:#333;}.cls-1,.cls-2{stroke-miterlimit:10;}.cls-2,.cls-3,.cls-4{stroke-linecap:round;}.cls-3{stroke:#0d3fb8;}.cls-3,.cls-4{stroke-linejoin:round;}</style></defs><title>Asset 17</title><g id="Layer_2" data-name="Layer 2"><g id="Secondary_Illustration" data-name="Secondary Illustration"><polyline class="cls-1" points="7.87 8.23 7.87 1 74.35 1 74.35 80.49 67.12 80.49"/><polygon class="cls-1" points="67.12 87.36 1 87.36 1 8.48 47.01 8.48 47.01 28.2 66.73 28.2 67.12 87.36"/><line class="cls-2" x1="22.56" y1="43.3" x2="55.99" y2="43.3"/><line class="cls-2" x1="22.56" y1="57.18" x2="55.99" y2="57.18"/><line class="cls-2" x1="22.56" y1="71.07" x2="55.99" y2="71.07"/><polyline class="cls-3" points="8.84 55.64 12.27 59.07 17.41 53.07"/><polyline class="cls-3" points="8.84 42.78 12.27 46.21 17.41 40.21"/><polyline class="cls-3" points="8.84 70.21 12.27 73.64 17.41 67.64"/><line class="cls-4" x1="47.89" y1="8.48" x2="66.73" y2="27.32"/><rect class="cls-1" x="89.06" y="19.45" width="6.27" height="43.91"/><polyline class="cls-2" points="95.33 64.15 92.23 70.43 89.12 64.15"/></g></g></svg>