<?xml version="1.0" encoding="utf-8"?>
<!-- Generator: Adobe Illustrator 22.1.0, SVG Export Plug-In . SVG Version: 6.00 Build 0)  -->
<svg version="1.1" id="Layer_1" xmlns="http://www.w3.org/2000/svg" xmlns:xlink="http://www.w3.org/1999/xlink" x="0px" y="0px"
	 viewBox="0 0 398.2 386.8" style="enable-background:new 0 0 398.2 386.8;" xml:space="preserve">
<style type="text/css">
	.st0{fill:none;stroke:#7EB1ED;stroke-width:2;stroke-linecap:round;stroke-linejoin:round;}
	.st1{fill:none;stroke:#FFFFFF;stroke-width:2;stroke-linecap:round;stroke-miterlimit:10;}
</style>
<title>Asset 3</title>
<g id="Layer_2_1_">
	<g id="Secondary_Illustration">
		<path class="st0" d="M261.6,103.5h-0.9c-1.7,0-3-1.3-3-3l0,0c0-1.7,1.3-3,3-3h3.7c6.3-9.3,18.4-12.8,28.7-8.2
			c4.5-6.4,13.3-8,19.8-3.5c1.9,1.3,3.5,3.1,4.5,5.2c1.4-0.6,2.9-0.9,4.5-0.9c4.8,0,9.1,2.9,10.9,7.3h5.2c1.7,0,3,1.3,3,3l0,0
			c0,1.7-1.3,3-3,3H261.6z"/>
		<path class="st0" d="M96.9,267.8h0.7c1.3,0,2.4-1.1,2.4-2.4l0,0c0-1.3-1.1-2.4-2.4-2.4h-3c-5.1-7.6-15-10.4-23.4-6.7
			c-3.7-5.2-10.9-6.5-16.1-2.8c-1.6,1.1-2.8,2.6-3.7,4.3c-4.9-2-10.5,0.3-12.5,5.1c0,0,0,0.1,0,0.1h-4.2c-1.3,0-2.4,1.1-2.4,2.4l0,0
			c0,1.3,1.1,2.4,2.4,2.4L96.9,267.8z"/>
		<path class="st0" d="M87.5,92.8h0.6c0.7-2.2,2.7-3.6,4.9-3.6c0.7,0,1.3,0.1,1.9,0.4c-0.1-0.4-0.1-0.8-0.1-1.3
			c0.1-3.3,2.8-5.8,6.1-5.8c2,0,4,1,5.1,2.7c1-0.3,2.1-0.5,3.2-0.5c4.8-0.1,9,3.3,9.9,8h0.8c1.3,0,2.4,1,2.4,2.3l0,0
			c0,1.3-1.1,2.3-2.4,2.3H87.5c-1.3,0-2.4-1-2.4-2.3l0,0C85.1,93.8,86.2,92.8,87.5,92.8z"/>
		<path class="st0" d="M255.9,300.8h-0.6c-0.7-2.4-3-4.1-5.6-4.1c-0.7,0-1.5,0.1-2.2,0.4c0.1-0.5,0.2-0.9,0.2-1.4
			c-0.1-3.8-3.2-6.7-7-6.6c0,0,0,0,0,0c-2.4,0-4.6,1.1-5.9,3.1c-1.2-0.4-2.4-0.5-3.6-0.5c-5.5-0.1-10.3,3.7-11.3,9.1h-0.9
			c-1.5,0-2.7,1.1-2.8,2.6l0,0c0,1.5,1.3,2.7,2.8,2.6h37c1.5,0,2.7-1.1,2.8-2.6l0,0C258.6,301.9,257.4,300.8,255.9,300.8z"/>
		<path class="st1" d="M234.4,235.7c-7.4,12.9-41.4,34.5-41.4,34.5s-34-23.5-41.3-36.4c-11.3-20-9.7-86-9.7-86s38.3-5.8,51-5.8
			s51,5.8,51,5.8S245.7,215.7,234.4,235.7z"/>
		<line class="st0" x1="193.1" y1="13.3" x2="193.1" y2="25.5"/>
		<line class="st0" x1="193.1" y1="1" x2="193.1" y2="7.1"/>
		<line class="st0" x1="193.4" y1="105.9" x2="193.4" y2="33.8"/>
		<line class="st0" x1="193.4" y1="385.8" x2="193.4" y2="373.5"/>
		<line class="st0" x1="193.1" y1="293.1" x2="193.1" y2="365.2"/>
		<line class="st0" x1="70.6" y1="55.7" x2="79.2" y2="64.4"/>
		<line class="st0" x1="61.9" y1="47" x2="66.2" y2="51.4"/>
		<line class="st0" x1="98.5" y1="83.1" x2="85.4" y2="69.9"/>
		<line class="st0" x1="136.4" y1="120.9" x2="112.9" y2="97.5"/>
		<line class="st0" x1="315.6" y1="55.4" x2="307" y2="64.1"/>
		<line class="st0" x1="324.3" y1="46.8" x2="320" y2="51.1"/>
		<line class="st0" x1="284.2" y1="87.4" x2="301.4" y2="70.2"/>
		<line class="st0" x1="250.4" y1="121.2" x2="267.8" y2="103.8"/>
		<line class="st0" x1="13.3" y1="188.3" x2="25.5" y2="188.3"/>
		<line class="st0" x1="1" y1="188.3" x2="7.1" y2="188.3"/>
		<line class="st0" x1="105.9" y1="187.9" x2="33.8" y2="187.9"/>
		<line class="st0" x1="64.3" y1="325.4" x2="72.9" y2="316.8"/>
		<line class="st0" x1="55.6" y1="334.1" x2="59.9" y2="329.8"/>
		<line class="st0" x1="129.5" y1="259.6" x2="78.5" y2="310.6"/>
		<line class="st0" x1="332" y1="314" x2="323.4" y2="305.3"/>
		<line class="st0" x1="340.7" y1="322.6" x2="336.4" y2="318.3"/>
		<line class="st0" x1="266.3" y1="248.8" x2="317.3" y2="299.8"/>
		<line class="st0" x1="385" y1="187.8" x2="372.7" y2="187.8"/>
		<line class="st0" x1="397.2" y1="187.8" x2="391.1" y2="187.8"/>
		<line class="st0" x1="292.3" y1="188.1" x2="364.4" y2="188.1"/>
		<line class="st0" x1="168.8" y1="126.3" x2="149.3" y2="68.6"/>
		<line class="st0" x1="228.9" y1="306" x2="238.4" y2="334.1"/>
		<line class="st0" x1="218.9" y1="276.4" x2="224.7" y2="293.5"/>
		<line class="st0" x1="127.1" y1="153.8" x2="72.5" y2="126.7"/>
		<line class="st0" x1="218.5" y1="123.3" x2="245.6" y2="68.7"/>
		<line class="st0" x1="120.8" y1="215.6" x2="63" y2="235.1"/>
		<line class="st0" x1="159" y1="266.7" x2="131.9" y2="321.3"/>
		<line class="st0" x1="265.6" y1="221.1" x2="320.2" y2="248.2"/>
		<line class="st0" x1="270.1" y1="165.6" x2="327.9" y2="146.1"/>
		<path class="st1" d="M184.1,153.2c-9.8,0.2-31.8,5.3-31.8,5.3s-0.4,54.6,8.6,70.5c5.8,10.3,24.8,23.5,24.8,23.5"/>
		<path class="st1" d="M202.1,153.2c9.8,0.2,30.6,5.3,30.6,5.3s0.4,54.6-8.6,70.5c-5.8,10.3-24.8,23.5-24.8,23.5"/>
		<line class="st1" x1="193" y1="269.3" x2="193.2" y2="151.1"/>
		<path class="st1" d="M192.1,141.9c-13.6,0.3-50.1,5.8-50.1,5.8s-1.6,66,9.7,86c6,10.6,30.1,28.5,38.4,34.4"/>
	</g>
</g>
</svg>
