<svg xmlns="http://www.w3.org/2000/svg" viewBox="0 0 183.68 146.54"><defs><style>.cls-1,.cls-2{fill:none;}.cls-1,.cls-2,.cls-3{stroke:#333;stroke-miterlimit:10;}.cls-1,.cls-3,.cls-4{stroke-linecap:round;}.cls-1,.cls-2,.cls-3,.cls-4{stroke-width:2px;}.cls-3,.cls-4{fill:#fff;}.cls-4{stroke:#0d3fb8;stroke-linejoin:round;}</style></defs><title>Asset 10</title><g id="Layer_2" data-name="Layer 2"><g id="Secondary_Illustration" data-name="Secondary Illustration"><path class="cls-1" d="M165.68,111.54a17,17,0,0,1,17,17h0a17,17,0,0,1-17,17H103.73"/><line class="cls-1" x1="73.68" y1="145.54" x2="80.63" y2="145.54"/><line class="cls-1" x1="86.5" y1="145.54" x2="96.54" y2="145.54"/><path class="cls-1" d="M71.47,111.3H18.58A17.63,17.63,0,0,1,1,93.72H1A17.63,17.63,0,0,1,18.58,76.15H23"/><line class="cls-1" x1="17.53" y1="120.77" x2="82.19" y2="120.77"/><line class="cls-1" x1="90.45" y1="111.3" x2="76.78" y2="111.3"/><polyline class="cls-2" points="95.19 92.73 29.68 92.73 29.68 1 82.98 1 82.98 23.93 105.82 23.93 105.82 42.93"/><line class="cls-2" x1="105.82" y1="41.98" x2="105.73" y2="71.9"/><line class="cls-3" x1="105.82" y1="22.94" x2="83.45" y2="1.01"/><line class="cls-4" x1="47.45" y1="41.49" x2="86.17" y2="41.49"/><line class="cls-4" x1="47.45" y1="57.64" x2="86.17" y2="57.64"/><line class="cls-4" x1="47.45" y1="73.79" x2="86.17" y2="73.79"/><circle class="cls-2" cx="129.49" cy="96.19" r="34.05"/><polyline class="cls-1" points="106.95 91.33 129.54 74.15 152.13 91.33"/><line class="cls-1" x1="113.29" y1="91.41" x2="145.79" y2="91.41"/><line class="cls-1" x1="106.92" y1="112.23" x2="152.16" y2="112.23"/><line class="cls-4" x1="116.28" y1="95.19" x2="116.28" y2="106.78"/><line class="cls-4" x1="129.54" y1="95.19" x2="129.54" y2="106.78"/><line class="cls-4" x1="142.8" y1="95.19" x2="142.8" y2="106.78"/><circle class="cls-1" cx="129.15" cy="84.91" r="2.73"/><line class="cls-1" x1="110.82" y1="107.6" x2="148.26" y2="107.6"/></g></g></svg>