<svg xmlns="http://www.w3.org/2000/svg" viewBox="0 0 238 83.39"><defs><style>.cls-1,.cls-2,.cls-3{fill:none;stroke-linecap:round;stroke-width:2px;}.cls-1,.cls-3{stroke:#333;}.cls-1,.cls-2{stroke-miterlimit:10;}.cls-2{stroke:#0d3fb8;}.cls-3{stroke-linejoin:round;}</style></defs><title>Asset 11</title><g id="Layer_2" data-name="Layer 2"><g id="Secondary_Illustration" data-name="Secondary Illustration"><rect class="cls-1" x="103.72" y="7.26" width="67.96" height="75.13"/><rect class="cls-1" x="77.3" y="31.05" width="26.43" height="51.34"/><rect class="cls-1" x="98.69" y="1" width="78.02" height="6.26"/><rect class="cls-2" x="121.72" y="19.16" width="9.06" height="8.76"/><rect class="cls-2" x="121.72" y="40.44" width="9.06" height="8.76"/><rect class="cls-2" x="86.48" y="40.44" width="9.06" height="8.76"/><rect class="cls-2" x="121.72" y="62.98" width="9.06" height="8.76"/><rect class="cls-2" x="86.11" y="62.35" width="8.81" height="20.03"/><rect class="cls-2" x="143.11" y="19.16" width="9.06" height="8.76"/><rect class="cls-2" x="143.11" y="40.44" width="9.06" height="8.76"/><rect class="cls-2" x="143.11" y="62.98" width="9.06" height="8.76"/><line class="cls-1" x1="21.17" y1="82.39" x2="215.82" y2="82.39"/><line class="cls-1" x1="17.14" y1="82.39" x2="10.08" y2="82.39"/><line class="cls-1" x1="5.03" y1="82.39" x2="1" y2="82.39"/><line class="cls-1" x1="220.86" y1="82.39" x2="227.92" y2="82.39"/><line class="cls-1" x1="232.97" y1="82.39" x2="237" y2="82.39"/><rect class="cls-1" x="56.3" y="49.04" width="5.86" height="5.86" rx="2.91" ry="2.91"/><path class="cls-1" d="M50.1,71.29l3-8.11a6.36,6.36,0,0,1,6.35-6.35h0a6.37,6.37,0,0,1,6.35,6.35v7.1"/><line class="cls-1" x1="57.03" y1="66.85" x2="57.03" y2="80.37"/><line class="cls-1" x1="61.92" y1="66.85" x2="61.92" y2="80.37"/><rect class="cls-1" x="38.34" y="58.86" width="4.08" height="4.08" rx="2.02" ry="2.02"/><path class="cls-1" d="M35.12,73.85l1-5.16a4.43,4.43,0,0,1,4.42-4.42h0A4.43,4.43,0,0,1,45,68.69l4.13,3.61"/><line class="cls-1" x1="38.85" y1="71.15" x2="38.85" y2="80.64"/><line class="cls-1" x1="42.24" y1="71.15" x2="42.24" y2="80.64"/><rect class="cls-1" x="187.84" y="53.98" width="5.86" height="5.86" rx="2.91" ry="2.91"/><path class="cls-1" d="M200.8,68.16a14.78,14.78,0,0,0-3-5c-1.59-1.59-4-3-5.75-2.36h0l1.72,7.4"/><polyline class="cls-3" points="187.69 71.19 183.65 72.2 183.65 79.26"/><circle class="cls-1" cx="193.23" cy="74.72" r="6.56"/><path class="cls-1" d="M19.78,63.75c0,7.18-2.59,8-5.78,8s-5.78-.77-5.78-8,2.59-18,5.78-18S19.78,56.57,19.78,63.75Z"/><line class="cls-1" x1="14" y1="71.7" x2="14" y2="81.7"/><path class="cls-1" d="M229,60.7c0,9.94-3.58,11-8,11s-8-1.06-8-11,3.58-25,8-25S229,50.76,229,60.7Z"/><line class="cls-1" x1="221" y1="71.7" x2="221" y2="81.7"/></g></g></svg>