<svg xmlns="http://www.w3.org/2000/svg" viewBox="0 0 111.56 144.13"><defs><style>.cls-1,.cls-2,.cls-4{fill:none;}.cls-1,.cls-2{stroke:#333;stroke-miterlimit:10;}.cls-1,.cls-3,.cls-4{stroke-linecap:round;}.cls-1,.cls-2,.cls-3,.cls-4{stroke-width:2px;}.cls-3{fill:#fff;}.cls-3,.cls-4{stroke:#0d3fb8;stroke-linejoin:round;}</style></defs><title>Asset 5</title><g id="Layer_2" data-name="Layer 2"><g id="Secondary_Illustration" data-name="Secondary Illustration"><polyline class="cls-1" points="60.73 60.86 48.77 60.86 48.77 69.34"/><polyline class="cls-1" points="101.55 134.67 110.56 134.67 110.56 60.86 75.81 60.86"/><polyline class="cls-1" points="39.38 120.26 39.38 143.13 101.17 143.13 101.17 102.31"/><polyline class="cls-1" points="60.68 69.33 39.38 69.33 39.38 94.12"/><polyline class="cls-2" points="101.17 103.07 101.17 87.78 82.64 87.78 82.64 69.33 75.81 69.33"/><line class="cls-1" x1="101.17" y1="86.98" x2="83.02" y2="69.34"/><line class="cls-3" x1="75.81" y1="101.91" x2="85.23" y2="101.91"/><line class="cls-3" x1="53.8" y1="89.69" x2="63.54" y2="89.69"/><line class="cls-3" x1="75.4" y1="114.9" x2="85.23" y2="114.9"/><line class="cls-3" x1="53.8" y1="127.89" x2="85.23" y2="127.89"/><path class="cls-1" d="M68.44,1H8.25A7.29,7.29,0,0,0,1,8.29V112.68A7.29,7.29,0,0,0,8.29,120H68.44a7.29,7.29,0,0,0,7.29-7.29V8.29A7.29,7.29,0,0,0,68.44,1ZM64.7,98.46H12V18.66H64.7Z"/><line class="cls-1" x1="29" y1="10.22" x2="46" y2="10.22"/><circle class="cls-1" cx="37.5" cy="108.71" r="4.62"/><rect class="cls-2" x="24.9" y="36.9" width="26.94" height="16.77"/><rect class="cls-2" x="33.86" y="31.12" width="9.01" height="5.78"/><circle class="cls-4" cx="38.37" cy="45.29" r="3.65"/></g></g></svg>